<svg xmlns="http://www.w3.org/2000/svg" width="20" height="20" viewBox="0 0 24 24" fill="inherit">
    <path
        d="M4.83 15.7951C4.7255 15.6908 4.6426 15.5668 4.58604 15.4304C4.52948 15.294 4.50037 15.1478 4.50037 15.0001C4.50037 14.8524 4.52948 14.7062 4.58604 14.5698C4.6426 14.4334 4.7255 14.3095 4.83 14.2051L11.205 7.83012C11.3093 7.72562 11.4333 7.64272 11.5697 7.58616C11.7061 7.5296 11.8523 7.50049 12 7.50049C12.1477 7.50049 12.2939 7.5296 12.4303 7.58616C12.5667 7.64272 12.6906 7.72562 12.795 7.83012L19.17 14.2051C19.2744 14.3095 19.3572 14.4335 19.4137 14.5699C19.4702 14.7063 19.4993 14.8525 19.4993 15.0001C19.4993 15.1478 19.4702 15.294 19.4137 15.4304C19.3572 15.5668 19.2744 15.6907 19.17 15.7951C19.0656 15.8995 18.9417 15.9823 18.8052 16.0388C18.6688 16.0953 18.5226 16.1244 18.375 16.1244C18.2274 16.1244 18.0812 16.0953 17.9447 16.0388C17.8083 15.9823 17.6844 15.8995 17.58 15.7951L12 10.2166L6.42 15.7951C6.31565 15.8996 6.19173 15.9825 6.05531 16.0391C5.9189 16.0956 5.77267 16.1248 5.625 16.1248C5.47732 16.1248 5.3311 16.0956 5.19468 16.0391C5.05827 15.9825 4.93435 15.8996 4.83 15.7951Z"
        fill="#8D8D8D" />
</svg>
