<svg width="24" height="24" viewBox="0 0 24 24" fill="inherit" xmlns="http://www.w3.org/2000/svg">
<g clip-path="url(#clip0_2958_7175)">
<path d="M22.8094 19.721L15.0884 12L22.8094 4.27902C23.6587 3.42972 23.6587 2.03994 22.8094 1.19063C21.9601 0.341323 20.5703 0.341323 19.721 1.19063L12 8.91161L4.27902 1.19063C3.42971 0.341323 2.03993 0.341323 1.19062 1.19063C0.341317 2.03994 0.341317 3.42972 1.19062 4.27902L8.91161 12L1.19063 19.721C0.341317 20.5703 0.341317 21.9601 1.19062 22.8094C2.03993 23.6587 3.42971 23.6587 4.27902 22.8094L12 15.0884L19.721 22.8094C20.5703 23.6587 21.9601 23.6587 22.8094 22.8094C23.6587 21.9601 23.6587 20.5703 22.8094 19.721Z" fill="white"/>
</g>
<defs>
<clipPath id="clip0_2958_7175">
<rect width="24" height="24" fill="white"/>
</clipPath>
</defs>
</svg>
