<svg width="24" height="24" viewBox="0 0 24 24" fill="inherit" xmlns="http://www.w3.org/2000/svg">
<path d="M17.5 4.49998H15V3.50007C15 2.6728 14.3272 1.99999 13.4999 1.99999H10.5C9.67269 1.99999 8.99988 2.67276 8.99988 3.50007V4.49998H6.50008C5.67281 4.49998 5 5.17274 5 6.00006V7.50014C5 7.77619 5.22408 8.00009 5.49995 8.00009V19.5C5.49995 20.8785 6.62142 22 7.99994 22H15.9999C17.3784 22 18.4999 20.8785 18.4999 19.5L18.5 7.99964C18.7761 7.99964 19 7.77556 19 7.49969V5.99961C19 5.17252 18.3272 4.49971 17.4999 4.49971L17.5 4.49998ZM10 3.50007C10 3.22437 10.2243 3.00012 10.5 3.00012H13.4999C13.7756 3.00012 13.9999 3.22438 13.9999 3.50007V4.49998H9.99997L10 3.50007ZM6.00013 6.00006C6.00013 5.72435 6.22438 5.5001 6.50008 5.5001H17.5C17.7757 5.5001 18 5.72436 18 6.00006V6.99996H6.00004L6.00013 6.00006ZM17.5001 19.5C17.5001 20.3272 16.8273 21 16 21H8.00002C7.17275 21 6.49995 20.3273 6.49995 19.5L6.50012 8.00004H17.5L17.5001 19.5ZM8.50011 18.5001V10.5001C8.50011 10.2241 8.72419 10.0002 9.00006 10.0002C9.27611 10.0002 9.50001 10.2242 9.50001 10.5001V18.5001C9.50001 18.7761 9.27593 19 9.00006 19C8.72401 19.0002 8.50011 18.7761 8.50011 18.5002V18.5001ZM14.5001 18.5001V10.5001C14.5001 10.2241 14.7242 10.0002 15 10.0002C15.2761 10.0002 15.5 10.2242 15.5 10.5001V18.5001C15.5 18.7761 15.2759 19 15 19C14.7241 19.0002 14.5001 18.7761 14.5001 18.5002V18.5001ZM11.5001 18.5001V10.5001C11.5001 10.2241 11.7242 10.0002 12.0001 10.0002C12.2761 10.0002 12.5 10.2242 12.5 10.5001V18.5001C12.5 18.7761 12.276 19 12.0001 19C11.724 19.0002 11.5001 18.7761 11.5001 18.5002V18.5001Z" fill="#383838"/>
</svg>
