<svg xmlns="http://www.w3.org/2000/svg" width="24" height="24" viewBox="0 0 24 24" fill="inherit">
<path d="M8.87503 12.0139C8.86739 10.2907 10.256 8.88656 11.9792 8.87507C12.8116 8.86952 13.6118 9.19631 14.2024 9.78296C14.7929 10.3696 15.125 11.1676 15.125 12.0001C15.125 13.7232 13.7301 15.1212 12.0069 15.125C10.2837 15.1288 8.88268 13.737 8.87503 12.0139Z" fill="#383838"/>
<path fill-rule="evenodd" clip-rule="evenodd" d="M21.9235 11.7577L22 11.9362L21.9235 12.1148C20.5714 15.6352 15.9541 18.7219 12.0255 18.7474H11.9745C8.04592 18.7219 3.42857 15.6352 2.07653 12.1148L2 11.9362L2.07653 11.7577C3.42857 8.23724 8.04592 5.15051 11.9745 5.125H12.0255C15.9541 5.15051 20.5714 8.23724 21.9235 11.7577ZM3.09694 11.9362C4.39796 15.0485 8.5051 17.727 12 17.727C15.4949 17.727 19.602 15.0485 20.9031 11.9362C19.602 8.82398 15.4949 6.14541 12 6.14541C8.5051 6.14541 4.39796 8.82398 3.09694 11.9362Z" fill="#383838"/>
</svg>