<svg width="24" height="24" viewBox="0 0 24 24" fill="none" xmlns="http://www.w3.org/2000/svg">
<path fill-rule="evenodd" clip-rule="evenodd" d="M13.3558 15.4524V20.0378C13.3558 20.1058 13.3577 20.1749 13.3596 20.2445C13.3628 20.363 13.3661 20.4828 13.3601 20.5998C13.3216 20.6001 13.2831 20.5996 13.2447 20.599H13.2447C13.2159 20.5986 13.1873 20.5981 13.159 20.5981H4.58409C4.45133 20.5981 4.31858 20.5989 4.18581 20.5998C3.93271 20.6011 3.67963 20.6026 3.42653 20.5988C3.42345 20.5155 3.42535 20.4314 3.42724 20.3476C3.42839 20.296 3.42955 20.2446 3.42955 20.1935V4.01933C3.42955 3.94561 3.42929 3.87215 3.42903 3.79878C3.42854 3.66331 3.42805 3.52815 3.42923 3.3922C3.46575 3.39186 3.5024 3.39241 3.53913 3.39296C3.56816 3.3934 3.59724 3.39384 3.62631 3.39384H12.2012C12.334 3.39384 12.4668 3.39306 12.5995 3.39229C12.8531 3.39081 13.1066 3.38933 13.3601 3.39325C13.3629 3.47814 13.3607 3.56399 13.3586 3.64939C13.3572 3.7056 13.3558 3.76161 13.3558 3.81703V8.54421C13.3558 8.90927 13.6829 9.25806 14.067 9.24178C14.4534 9.22551 14.7783 8.93484 14.7783 8.54421V3.40081C14.7783 3.04041 14.6644 2.72185 14.4274 2.44515C14.1737 2.14985 13.7683 2.00336 13.3819 2.00103C13.2489 1.99948 13.116 2 12.9838 2.00052C12.9179 2.00078 12.8522 2.00103 12.7868 2.00103H3.43903C3.20433 2.00103 2.98385 2.04754 2.76574 2.14287C2.2916 2.35214 2.01185 2.84276 2 3.34269V20.6354C2.01185 21.2329 2.39117 21.7375 2.96489 21.9351C3.16503 22.0039 3.38713 22.0013 3.60125 21.9989C3.64076 21.9984 3.68 21.9979 3.71878 21.9979H11.5967C11.7958 21.9979 11.995 21.9985 12.1941 21.999H12.1945C12.5926 22 12.9908 22.001 13.389 21.9979C13.8702 21.9933 14.2922 21.7608 14.5601 21.3725C14.7236 21.133 14.783 20.847 14.783 20.561V15.4524C14.783 15.0874 14.4558 14.7386 14.0717 14.7549C13.6806 14.7711 13.3558 15.0618 13.3558 15.4524ZM13.3598 3.38393L13.3601 3.39325L13.3679 3.39338C13.3704 3.40429 13.3727 3.41529 13.3747 3.4264C13.3731 3.41534 13.3715 3.40435 13.3699 3.3934L13.3781 3.39354C13.387 3.41034 13.3953 3.4274 13.4032 3.445L13.3814 3.39359L13.3889 3.39371C13.4002 3.4039 13.4029 3.40375 13.4005 3.39784C13.4022 3.39883 13.4039 3.39981 13.4056 3.40081C13.437 3.41763 13.437 3.41271 13.4245 3.40043C13.4388 3.40471 13.453 3.40945 13.4672 3.41476L13.4185 3.39488L13.4177 3.39413C13.4467 3.39486 13.4767 3.3971 13.5051 3.40081C13.4733 3.39619 13.442 3.39213 13.4107 3.38808C13.4008 3.37979 13.389 3.37059 13.378 3.36271C13.3731 3.35605 13.368 3.34924 13.363 3.34285C13.3584 3.30888 13.3539 3.27498 13.3487 3.24038C13.3526 3.27199 13.3555 3.30386 13.3575 3.33591L13.3562 3.33433L13.3321 3.27758C13.3384 3.29374 13.3441 3.3099 13.3493 3.32615C13.3341 3.30845 13.3263 3.30349 13.3463 3.33804C13.3478 3.34046 13.3493 3.3429 13.3507 3.34534C13.3414 3.34089 13.3408 3.34453 13.359 3.36388L13.3593 3.37066L13.2965 3.34501C13.3181 3.35429 13.339 3.36431 13.3595 3.37509L13.3597 3.3814C13.3451 3.37943 13.3303 3.3774 13.3155 3.37524C13.3304 3.3779 13.3452 3.38076 13.3598 3.38393ZM13.3652 3.38214L13.3597 3.3814L13.3598 3.38393C13.3619 3.38436 13.3639 3.38483 13.366 3.38528C13.3666 3.38798 13.3673 3.39066 13.3679 3.39338L13.3699 3.3934C13.3696 3.39091 13.3692 3.38841 13.3689 3.38593C13.3708 3.38636 13.3728 3.38681 13.3747 3.38726C13.3758 3.38935 13.377 3.39144 13.3781 3.39354L13.3814 3.39359L13.3791 3.38829C13.3809 3.38871 13.3827 3.38914 13.3844 3.38958C13.3861 3.39111 13.3875 3.39249 13.3889 3.39371L13.3935 3.3938C13.3958 3.39513 13.3982 3.39648 13.4005 3.39784C13.4 3.39671 13.3994 3.39536 13.3986 3.39385L13.4012 3.39386C13.409 3.39593 13.4168 3.3981 13.4245 3.40043C13.4227 3.3987 13.4207 3.39685 13.4185 3.39488L13.4166 3.39409L13.4177 3.39413C13.4155 3.39219 13.4132 3.39016 13.4107 3.38808L13.3978 3.38641L13.3929 3.38441C13.3889 3.37805 13.3836 3.37049 13.378 3.36271C13.3732 3.35929 13.3686 3.35611 13.3644 3.35338C13.3639 3.34988 13.3635 3.34636 13.363 3.34285C13.3611 3.34046 13.3593 3.33815 13.3575 3.33591L13.3576 3.3376L13.3562 3.33433C13.3538 3.3314 13.3515 3.32864 13.3493 3.32615C13.3517 3.33349 13.354 3.34085 13.3561 3.34824C13.3541 3.34706 13.3523 3.34609 13.3507 3.34534C13.3534 3.34984 13.3561 3.35434 13.3587 3.35885L13.359 3.36386C13.3597 3.36461 13.3604 3.36538 13.3611 3.36616C13.3617 3.36813 13.3622 3.37009 13.3627 3.37205L13.3593 3.37066L13.3595 3.37509C13.361 3.3759 13.3626 3.37671 13.3641 3.37754C13.3645 3.37907 13.3649 3.38061 13.3652 3.38214ZM13.3684 3.38255L13.3652 3.38214L13.366 3.38528L13.3689 3.38593L13.3684 3.38255ZM13.368 3.37963C13.3667 3.37893 13.3654 3.37824 13.3641 3.37754C13.3636 3.37571 13.3632 3.37388 13.3627 3.37205L13.3672 3.3739L13.368 3.37963ZM13.3772 3.38371L13.3777 3.3849L13.375 3.38343L13.3772 3.38371ZM13.3763 3.38158L13.3772 3.38371L13.3786 3.3839C13.3798 3.38514 13.381 3.3863 13.3822 3.38739C13.3839 3.38835 13.3856 3.38931 13.3873 3.39028C13.3909 3.39118 13.3945 3.39209 13.3981 3.39303C13.397 3.39094 13.3955 3.38853 13.3939 3.3859C13.3888 3.38524 13.3837 3.38458 13.3786 3.3839C13.3778 3.38315 13.3771 3.38238 13.3763 3.38158ZM13.3697 3.37491L13.3742 3.37676L13.3763 3.38158C13.3743 3.37963 13.3722 3.37751 13.37 3.37524L13.3697 3.37491ZM13.3697 3.37491L13.3674 3.37398L13.3672 3.37356L13.367 3.37218C13.3678 3.37306 13.3687 3.37398 13.3697 3.37491ZM3.41768 3.39234L3.42923 3.3922L3.42931 3.38311C3.44269 3.38028 3.45619 3.37768 3.46985 3.37524C3.45625 3.37721 3.44276 3.37909 3.42933 3.3809L3.42939 3.37469C3.44881 3.36418 3.46811 3.3539 3.48881 3.34501L3.42944 3.36928L3.42954 3.36041C3.4439 3.34458 3.44339 3.34115 3.43546 3.34454C3.43666 3.34238 3.43785 3.3402 3.43903 3.33804C3.45905 3.30349 3.45121 3.30845 3.43599 3.32615C3.44123 3.3099 3.44698 3.29374 3.45325 3.27758L3.4299 3.33255C3.43073 3.30183 3.43298 3.2711 3.43666 3.24038C3.43144 3.27498 3.42693 3.30888 3.42235 3.34285C3.41774 3.34873 3.41301 3.35498 3.40851 3.36113C3.39669 3.36943 3.38366 3.37941 3.37321 3.38826C3.3424 3.39225 3.31159 3.39625 3.28019 3.40081C3.30894 3.39729 3.33784 3.3951 3.36684 3.3938L3.36473 3.39573L3.31813 3.41476C3.33186 3.40964 3.3456 3.40504 3.35939 3.40086C3.34838 3.41211 3.34963 3.41626 3.37976 3.40081C3.38139 3.40001 3.38301 3.39921 3.38463 3.39841C3.38255 3.40391 3.38569 3.40354 3.3975 3.39274L3.4044 3.39258L3.38214 3.445C3.39014 3.42704 3.39926 3.40963 3.40868 3.39249L3.41555 3.39236C3.41395 3.40365 3.4123 3.41499 3.41059 3.4264C3.41271 3.41494 3.41508 3.40359 3.41768 3.39234ZM3.41934 3.38528C3.41877 3.38763 3.41822 3.38998 3.41768 3.39234L3.41555 3.39236C3.41585 3.39021 3.41615 3.38808 3.41645 3.38593L3.41934 3.38528ZM3.4201 3.38214C3.42318 3.38173 3.42625 3.38131 3.42933 3.3809L3.42931 3.38311C3.42598 3.38381 3.42265 3.38454 3.41934 3.38528L3.4201 3.38214ZM3.41693 3.38255L3.41645 3.38593C3.41486 3.38629 3.41329 3.38664 3.4117 3.38701C3.41243 3.3857 3.41315 3.3844 3.41389 3.38309L3.41421 3.38291L3.41693 3.38255ZM3.41709 3.38136L3.41693 3.38255L3.4201 3.38214L3.42079 3.37936C3.42366 3.3778 3.42653 3.37624 3.42939 3.37469L3.42944 3.36928L3.42264 3.37206C3.42315 3.37009 3.42366 3.36811 3.42419 3.36615C3.42616 3.36408 3.42794 3.36218 3.42954 3.36041L3.42955 3.35896V3.35518C3.43154 3.35163 3.43351 3.34809 3.43546 3.34454C3.43381 3.34525 3.43184 3.34625 3.42961 3.3475L3.42963 3.34679C3.43165 3.33989 3.43378 3.33301 3.43599 3.32615C3.43405 3.32839 3.432 3.33084 3.42988 3.33344L3.4299 3.33255L3.42915 3.33433C3.42694 3.33704 3.42466 3.3399 3.42235 3.34285C3.4219 3.34613 3.42146 3.34941 3.42101 3.3527C3.41714 3.35518 3.41291 3.35803 3.40851 3.36113C3.40241 3.36946 3.39675 3.37761 3.3924 3.38441L3.38753 3.38641C3.38275 3.38703 3.37799 3.38765 3.37321 3.38826C3.37096 3.39018 3.36883 3.39203 3.36684 3.3938L3.36974 3.39368L3.36473 3.39573C3.36274 3.39755 3.36094 3.39928 3.35939 3.40086C3.36864 3.39806 3.37791 3.39546 3.38723 3.39303C3.38605 3.39516 3.38516 3.39699 3.38463 3.39841C3.38834 3.39655 3.392 3.39468 3.39564 3.39279L3.3975 3.39274C3.39824 3.39206 3.399 3.39136 3.39979 3.39061L3.40249 3.38919L3.40623 3.38829L3.4044 3.39258L3.40868 3.39249C3.40969 3.39066 3.41069 3.38884 3.4117 3.38701C3.40988 3.38744 3.40805 3.38786 3.40623 3.38829L3.40683 3.38689C3.40919 3.38563 3.41154 3.38436 3.41389 3.38309L3.41396 3.38295L3.41421 3.38291C3.41518 3.3824 3.41614 3.38188 3.41709 3.38136ZM3.41565 3.37491L3.41813 3.3739L3.41836 3.37218C3.41973 3.37079 3.42103 3.36945 3.42225 3.36818C3.42314 3.36659 3.42404 3.36501 3.42493 3.36344C3.42635 3.35815 3.42784 3.35289 3.42938 3.34764C3.427 3.34898 3.42434 3.35059 3.42146 3.35241L3.42086 3.35383C3.42004 3.35994 3.4192 3.36605 3.41836 3.37218C3.41749 3.37306 3.41658 3.37398 3.41565 3.37491ZM3.40908 3.38158L3.40816 3.38371L3.40674 3.3839C3.4075 3.38315 3.40828 3.38238 3.40908 3.38158ZM3.40908 3.38158C3.41103 3.37963 3.41311 3.37751 3.41533 3.37524L3.41565 3.37491L3.41113 3.37676L3.40908 3.38158ZM3.42689 20.6079L3.42653 20.5988H3.4218C3.41753 20.5815 3.41379 20.5643 3.41059 20.547C3.4132 20.5644 3.41564 20.5815 3.418 20.5986H3.41588C3.4037 20.5761 3.39246 20.5539 3.38214 20.5308L3.41094 20.5985L3.40501 20.5984L3.40325 20.5975C3.38601 20.5839 3.37994 20.582 3.3806 20.5869L3.37976 20.5865L3.38066 20.5873C3.38109 20.5895 3.38276 20.5929 3.38533 20.5971C3.36279 20.5906 3.34045 20.5833 3.31813 20.5749L3.37471 20.598C3.34348 20.5975 3.31095 20.5953 3.28019 20.5911C3.3177 20.5966 3.3544 20.6013 3.39123 20.6061C3.40011 20.6188 3.4131 20.6345 3.42454 20.6468C3.42839 20.6754 3.43226 20.7039 3.43666 20.733C3.4334 20.706 3.43098 20.6789 3.4292 20.6516C3.4318 20.6544 3.43426 20.6568 3.43653 20.6588L3.45325 20.6981C3.44861 20.6861 3.44425 20.6741 3.44019 20.6619C3.4507 20.6704 3.4541 20.6676 3.43903 20.64C3.43651 20.6356 3.43401 20.6313 3.43156 20.6269C3.44328 20.6361 3.45273 20.6435 3.45996 20.6493C3.47171 20.6588 3.47766 20.6635 3.47769 20.6634L3.45996 20.6493C3.45661 20.6465 3.4528 20.6435 3.44851 20.64C3.44198 20.6349 3.43544 20.629 3.42929 20.6229L3.42744 20.6196L3.48881 20.6446C3.46761 20.6355 3.44715 20.6229 3.42701 20.6109L3.427 20.6108C3.44121 20.6128 3.45546 20.6146 3.46985 20.6168C3.45536 20.6141 3.44106 20.6113 3.42689 20.6079ZM3.4267 20.6108H3.42701L3.42689 20.6079L3.42398 20.6073C3.42324 20.6044 3.42251 20.6015 3.4218 20.5988L3.418 20.5986L3.41871 20.6039C3.41776 20.6021 3.41681 20.6004 3.41588 20.5986L3.41094 20.5985L3.41269 20.6026C3.41013 20.6013 3.40756 20.5998 3.40501 20.5984H3.40441L3.40325 20.5975C3.39569 20.5935 3.38814 20.5899 3.3806 20.5869L3.38066 20.5873C3.38559 20.591 3.39031 20.5948 3.39486 20.5983L3.38925 20.5981H3.38894L3.38533 20.5971L3.38596 20.5981L3.37471 20.598L3.38998 20.6043L3.39123 20.6061L3.39586 20.6066L3.41648 20.6151L3.41873 20.6169L3.42133 20.623C3.4224 20.6309 3.42346 20.6389 3.42454 20.6468C3.42613 20.6485 3.42769 20.6501 3.4292 20.6516C3.42894 20.6478 3.4287 20.6438 3.42846 20.6398L3.43653 20.6588C3.43781 20.6599 3.43904 20.661 3.44019 20.6619C3.43606 20.6496 3.43224 20.6371 3.42871 20.6246L3.43156 20.6269C3.4308 20.6255 3.43005 20.6243 3.42929 20.6229L3.42778 20.6214L3.42743 20.6201L3.4274 20.6195L3.42744 20.6196L3.4274 20.6195L3.42701 20.6109L3.4267 20.6108ZM3.42483 20.6105L3.4267 20.6108L3.42456 20.6095L3.42398 20.6073L3.42008 20.6063L3.41871 20.6039L3.41903 20.606L3.41843 20.6059C3.41651 20.6048 3.4146 20.6038 3.41269 20.6026L3.41356 20.6048L3.41145 20.6041C3.40893 20.6021 3.40659 20.6001 3.40441 20.5984L3.39486 20.5983L3.39793 20.6006C3.39493 20.5999 3.39194 20.599 3.38894 20.5981H3.38596C3.38714 20.6 3.38849 20.6021 3.38998 20.6043L3.39586 20.6066C3.39979 20.6071 3.40373 20.6078 3.40765 20.6083C3.4107 20.6106 3.41364 20.6129 3.41648 20.6151L3.41829 20.6159L3.41873 20.6169L3.4207 20.6184L3.42133 20.623L3.42846 20.6398C3.42815 20.6345 3.42786 20.6291 3.4276 20.6238L3.42871 20.6246L3.42778 20.6214L3.42748 20.621L3.42743 20.6201L3.42726 20.6195H3.4274L3.42714 20.619C3.42635 20.6163 3.42559 20.6134 3.42483 20.6105ZM3.42219 20.6101C3.42163 20.6091 3.42108 20.6081 3.42053 20.6071C3.42188 20.6079 3.42321 20.6088 3.42456 20.6095L3.42483 20.6105L3.42219 20.6101ZM3.41954 20.6098L3.42219 20.6101C3.42383 20.6131 3.42548 20.6161 3.42714 20.619L3.42726 20.6195L3.42519 20.6186C3.4234 20.6168 3.42165 20.6149 3.41996 20.6129L3.41954 20.6098ZM3.41698 20.6095C3.41795 20.6106 3.41894 20.6118 3.41996 20.6129L3.42048 20.6168L3.41829 20.6159L3.41549 20.6093L3.41698 20.6095ZM3.4144 20.6066L3.41356 20.6048C3.41519 20.6051 3.4168 20.6055 3.41843 20.6059L3.41905 20.6063L3.41954 20.6098L3.41698 20.6095L3.41533 20.6075L3.4144 20.6066ZM3.4144 20.6066L3.41549 20.6093L3.40765 20.6083C3.40453 20.6058 3.40128 20.6033 3.39793 20.6006C3.40243 20.6019 3.40693 20.603 3.41145 20.6041C3.4124 20.605 3.41339 20.6058 3.4144 20.6066ZM3.41905 20.6063L3.41903 20.606L3.42008 20.6063L3.42053 20.6071L3.41905 20.6063ZM3.42048 20.6168L3.42519 20.6186C3.42594 20.6195 3.4267 20.6203 3.42748 20.621L3.4276 20.6238C3.42539 20.622 3.42308 20.6203 3.4207 20.6184L3.42048 20.6168ZM13.3635 20.5998H13.3601L13.3597 20.6076C13.3451 20.611 13.3304 20.6141 13.3155 20.6168C13.3292 20.6148 13.3428 20.6129 13.3564 20.611C13.3361 20.6229 13.3163 20.6356 13.2965 20.6446L13.3575 20.6198L13.3368 20.64C13.2941 20.6746 13.2994 20.6721 13.3517 20.6303C13.3499 20.6335 13.3481 20.6368 13.3463 20.64C13.3312 20.6678 13.3347 20.6704 13.3453 20.6618C13.3412 20.674 13.3368 20.686 13.3321 20.6981L13.3488 20.6588C13.3513 20.6565 13.354 20.6539 13.3569 20.6509C13.3548 20.6785 13.3521 20.7059 13.3487 20.733C13.3531 20.7039 13.3569 20.6754 13.3608 20.6468C13.3722 20.6345 13.3852 20.6188 13.3941 20.6061C13.4309 20.6013 13.4676 20.5966 13.5051 20.5911C13.4735 20.595 13.4415 20.5974 13.4093 20.5985L13.4672 20.5749C13.4449 20.5833 13.4225 20.5906 13.4 20.5971C13.4025 20.5929 13.4042 20.5895 13.4047 20.5873L13.4056 20.5865L13.4047 20.5869C13.4053 20.5823 13.3998 20.5838 13.3842 20.5958C13.3818 20.597 13.3794 20.5983 13.377 20.5995H13.374L13.4017 20.5343C13.3918 20.5573 13.3803 20.5788 13.3688 20.5996H13.3672C13.3696 20.5823 13.3721 20.5648 13.3747 20.547C13.3715 20.565 13.3678 20.5825 13.3635 20.5998ZM13.3667 20.6034L13.3672 20.5996L13.3635 20.5998C13.3629 20.6023 13.3623 20.6046 13.3616 20.6071L13.3597 20.6076L13.3596 20.6091C13.3585 20.6098 13.3575 20.6104 13.3564 20.611L13.3596 20.6106L13.3592 20.6161L13.359 20.6171L13.3576 20.6196L13.3575 20.6198H13.3575C13.3556 20.6233 13.3536 20.6268 13.3517 20.6303L13.3564 20.6265C13.3529 20.6384 13.3493 20.6501 13.3453 20.6618C13.3464 20.6609 13.3476 20.6599 13.3488 20.6588L13.3579 20.6374C13.3576 20.6419 13.3573 20.6464 13.3569 20.6509C13.3582 20.6496 13.3595 20.6483 13.3608 20.6468C13.3619 20.6389 13.3629 20.6309 13.364 20.623L13.3657 20.6189L13.3721 20.6138L13.3895 20.6066L13.3941 20.6061L13.3954 20.6043L13.4093 20.5985L13.3989 20.5989L13.4 20.5971C13.3977 20.5978 13.3953 20.5985 13.393 20.5991H13.39C13.3947 20.5954 13.3996 20.5914 13.4047 20.5873L13.4047 20.5869C13.3978 20.5894 13.391 20.5925 13.3842 20.5958C13.3828 20.5969 13.3813 20.5981 13.3796 20.5994L13.377 20.5995C13.3757 20.6001 13.3744 20.6009 13.3731 20.6015L13.374 20.5995L13.3688 20.5996C13.3681 20.6009 13.3674 20.6021 13.3667 20.6034ZM13.3664 20.6053L13.3667 20.6034L13.3653 20.6059L13.3641 20.6066L13.3616 20.6071L13.3614 20.6081L13.3596 20.6091L13.3596 20.6106L13.3608 20.6105C13.3603 20.6123 13.3598 20.6142 13.3592 20.6161L13.3592 20.6168L13.359 20.6171L13.3585 20.6188L13.3576 20.6196L13.3575 20.6198L13.3584 20.6194C13.3577 20.6218 13.357 20.6241 13.3564 20.6265L13.3587 20.6245C13.3585 20.6289 13.3582 20.6331 13.3579 20.6374L13.364 20.623L13.3644 20.62L13.3657 20.6189L13.367 20.6159L13.3721 20.6138L13.3792 20.608C13.3826 20.6076 13.386 20.6071 13.3895 20.6066L13.3954 20.6043C13.3966 20.6024 13.3978 20.6006 13.3989 20.5989L13.393 20.5991C13.3916 20.5995 13.3901 20.5999 13.3887 20.6003L13.39 20.5991L13.3796 20.5994C13.3778 20.6009 13.3759 20.6025 13.3739 20.6041L13.3718 20.6048L13.3731 20.6015C13.3709 20.6028 13.3686 20.604 13.3664 20.6053ZM13.3663 20.606L13.3664 20.6053L13.3653 20.6059L13.365 20.6064L13.364 20.6066L13.3614 20.6081L13.3608 20.6105L13.3629 20.6101L13.3592 20.6168L13.3591 20.6181L13.3585 20.6188L13.3584 20.6194L13.3591 20.6191L13.3587 20.6245C13.3606 20.623 13.3625 20.6215 13.3644 20.62L13.3649 20.6168L13.367 20.6159L13.3698 20.6093C13.373 20.6089 13.3761 20.6084 13.3792 20.608C13.3822 20.6055 13.3854 20.603 13.3887 20.6003C13.3838 20.6016 13.3788 20.6029 13.3739 20.6041C13.3729 20.605 13.3719 20.6058 13.3709 20.6066L13.3718 20.6048C13.3699 20.6051 13.3681 20.6056 13.3663 20.606ZM13.3658 20.6098L13.3663 20.606L13.365 20.6064L13.3629 20.6101L13.3658 20.6098ZM13.3679 20.6095L13.3658 20.6098L13.3655 20.6119L13.3591 20.6181L13.3591 20.6191L13.3649 20.6168L13.3655 20.6119L13.3679 20.6095ZM13.3679 20.6095L13.3698 20.6093L13.3709 20.6066L13.37 20.6075L13.3679 20.6095ZM18.5358 10.2649L17.3908 9.14179C17.1086 8.86742 17.13 8.43493 17.3908 8.15589C17.6491 7.87919 18.1328 7.8978 18.396 8.15589L18.8179 8.56979L20.6434 10.3602L21.7885 11.4833C21.9066 11.5992 21.9735 11.7495 21.9893 11.9045C21.9946 11.9356 21.998 11.9673 21.9995 11.9995C22.0099 12.2365 21.873 12.4514 21.6773 12.5782L21.3665 12.8831L19.541 14.6735L18.396 15.7966C18.1163 16.0733 17.6753 16.0524 17.3908 15.7966C17.1086 15.5431 17.1276 15.0688 17.3908 14.8106L17.8128 14.3968L19.5458 12.6971H7.44082C7.04017 12.6971 6.74619 12.3785 6.7296 11.9995C6.713 11.6228 7.06862 11.3019 7.44082 11.3019H7.46453C7.83759 11.2957 8.2117 11.2978 8.58547 11.2999H8.58553C8.77229 11.3009 8.95897 11.3019 9.14537 11.3019H19.5931L18.5358 10.2649ZM13.3716 3.38159C13.3704 3.38093 13.3692 3.38028 13.368 3.37963L13.3684 3.38255L13.3724 3.38309C13.3732 3.38448 13.374 3.38586 13.3747 3.38726C13.3762 3.3876 13.3776 3.38795 13.3791 3.38829L13.3777 3.3849C13.3792 3.38573 13.3807 3.38655 13.3822 3.38739C13.3829 3.38815 13.3837 3.38888 13.3844 3.38958L13.3873 3.39028C13.3894 3.39145 13.3914 3.39261 13.3935 3.3938L13.3961 3.39384L13.3985 3.39385L13.3981 3.39303L13.4012 3.39386L13.4166 3.39409L13.3978 3.38641L13.3939 3.3859L13.3929 3.38441L13.3742 3.37676L13.3645 3.35383L13.3644 3.35339L13.3645 3.35383C13.3653 3.35994 13.3661 3.36605 13.367 3.37218L13.3656 3.37075C13.3636 3.36723 13.3616 3.36371 13.3595 3.3602L13.3586 3.35704L13.3583 3.34949C13.3601 3.35061 13.3621 3.35188 13.3642 3.35325L13.3643 3.35338L13.3642 3.35325L13.3576 3.3376C13.3578 3.34156 13.358 3.34553 13.3583 3.3495L13.3561 3.34824C13.357 3.35116 13.3578 3.3541 13.3586 3.35704L13.3587 3.35885L13.3595 3.3602C13.3601 3.36219 13.3606 3.36418 13.3611 3.36616C13.3625 3.36761 13.364 3.36914 13.3656 3.37076L13.3672 3.37356L13.3672 3.3739L13.3674 3.37398C13.3688 3.37651 13.3702 3.37905 13.3716 3.38159C13.3727 3.3822 13.3739 3.38281 13.375 3.38343L13.3724 3.38309L13.3716 3.38159ZM3.41783 3.37605L3.41709 3.38136C3.41833 3.38069 3.41955 3.38003 3.42079 3.37936C3.42139 3.37693 3.42201 3.37449 3.42264 3.37206L3.4193 3.37343C3.42029 3.37168 3.42128 3.36993 3.42225 3.36818L3.42419 3.36615L3.42493 3.36344C3.42648 3.36068 3.42801 3.35793 3.42955 3.35518L3.42961 3.3475L3.42938 3.34764L3.42963 3.34679L3.42988 3.33344L3.42915 3.33433L3.42146 3.35241L3.42101 3.3527L3.42086 3.35383L3.41113 3.37676L3.3924 3.38441L3.39146 3.3859L3.38753 3.38641L3.36974 3.39368C3.37556 3.39343 3.38139 3.39321 3.38723 3.39303H3.38724H3.38723C3.38838 3.39093 3.38981 3.38853 3.39146 3.3859C3.39655 3.38524 3.40164 3.38458 3.40674 3.3839C3.40463 3.38599 3.40268 3.38788 3.40089 3.38958C3.39633 3.39069 3.39179 3.39184 3.38724 3.39303L3.39564 3.39279C3.39703 3.39206 3.39841 3.39134 3.39979 3.39061L3.40089 3.38958L3.40249 3.38919C3.40394 3.38843 3.40538 3.38765 3.40683 3.38689L3.40816 3.38371L3.41396 3.38295C3.41525 3.38064 3.41654 3.37835 3.41783 3.37605L3.41813 3.3739L3.4193 3.37343L3.41783 3.37605Z" fill="#383838"/>
</svg>
