<svg width="20" height="5" viewBox="0 0 20 5" fill="none" xmlns="http://www.w3.org/2000/svg">
<path fill-rule="evenodd" clip-rule="evenodd" d="M1.74518 1.1405H3.11184C3.84562 1.1405 4.12184 1.51198 4.07916 2.05772C4.0086 2.95872 3.46391 3.45719 2.74143 3.45719H2.37665C2.27752 3.45719 2.21085 3.52281 2.18404 3.70061L2.02917 4.73424C2.01894 4.80127 1.98366 4.84008 1.93074 4.84537H1.07208C0.991298 4.84537 0.962723 4.78363 0.983889 4.64993L1.50741 1.33629C1.52787 1.20365 1.60054 1.1405 1.74518 1.1405Z" fill="#009EE3"/>
<path fill-rule="evenodd" clip-rule="evenodd" d="M7.67855 1.07916C8.13963 1.07916 8.56508 1.32928 8.50687 1.95264C8.43632 2.69347 8.03945 3.1034 7.41327 3.10516H6.86611C6.78744 3.10516 6.74934 3.16937 6.72888 3.30095L6.62304 3.9737C6.60717 4.0753 6.55496 4.12539 6.47805 4.12539H5.969C5.88786 4.12539 5.85963 4.07354 5.87763 3.95747L6.29778 1.2612C6.3186 1.12855 6.36834 1.07916 6.459 1.07916H7.6775H7.67855ZM6.84953 2.52273H7.26404C7.52333 2.51285 7.69549 2.33329 7.71277 2.00944C7.72336 1.80941 7.58824 1.66618 7.3734 1.66724L6.98323 1.66901L6.84953 2.52273ZM9.89082 3.91902C9.93739 3.87669 9.98466 3.85481 9.97796 3.90703L9.96138 4.03191C9.95291 4.09717 9.97866 4.13174 10.0393 4.13174H10.4916C10.5678 4.13174 10.6048 4.10105 10.6235 3.98323L10.9022 2.23415C10.9163 2.14631 10.8948 2.10327 10.8281 2.10327H10.3307C10.2859 2.10327 10.2641 2.12832 10.2524 2.19676L10.2341 2.30436C10.2245 2.36045 10.1988 2.37033 10.1748 2.31388C10.0905 2.11421 9.8753 2.02461 9.57508 2.03166C8.87764 2.04612 8.40739 2.57564 8.35694 3.25439C8.31814 3.77932 8.6942 4.19172 9.1902 4.19172C9.55004 4.19172 9.7109 4.08588 9.89223 3.92008L9.89082 3.91902ZM9.51194 3.64985C9.21172 3.64985 9.00253 3.41032 9.04592 3.1168C9.08931 2.82329 9.37012 2.58376 9.67033 2.58376C9.97055 2.58376 10.1797 2.82329 10.1364 3.1168C10.093 3.41032 9.8125 3.64985 9.51194 3.64985ZM11.7874 2.09763H11.3287C11.2342 2.09763 11.1957 2.16819 11.2257 2.25497L11.7951 3.92219L11.2367 4.71559C11.1897 4.78191 11.2261 4.84224 11.2921 4.84224H11.8075C11.8375 4.84571 11.8679 4.84047 11.895 4.82715C11.9222 4.81383 11.9449 4.79298 11.9606 4.7671L13.7117 2.25532C13.7657 2.17806 13.7403 2.09693 13.6518 2.09693H13.1639C13.0803 2.09693 13.0468 2.13009 12.9988 2.19958L12.2685 3.25792L11.9422 2.19711C11.9232 2.13291 11.8755 2.09763 11.7877 2.09763H11.7874Z" fill="#113984"/>
<path fill-rule="evenodd" clip-rule="evenodd" d="M15.5335 1.07914C15.9946 1.07914 16.42 1.32926 16.3618 1.95261C16.2913 2.69345 15.8944 3.10337 15.2682 3.10514H14.7214C14.6427 3.10514 14.6046 3.16934 14.5842 3.30093L14.4783 3.97367C14.4625 4.07527 14.4102 4.12537 14.3333 4.12537H13.8243C13.7431 4.12537 13.7149 4.07351 13.7329 3.95745L14.1538 1.26046C14.1746 1.12782 14.2243 1.07843 14.315 1.07843H15.5335V1.07914ZM14.7045 2.5227H15.119C15.3783 2.51282 15.5504 2.33326 15.5677 2.00941C15.5783 1.80939 15.4432 1.66616 15.2283 1.66722L14.8382 1.66898L14.7045 2.5227ZM17.7458 3.91899C17.7923 3.87666 17.8396 3.85479 17.8329 3.907L17.8163 4.03188C17.8078 4.09715 17.8336 4.13172 17.8943 4.13172H18.3465C18.4227 4.13172 18.4598 4.10103 18.4785 3.9832L18.7572 2.23413C18.7713 2.14629 18.7498 2.10325 18.6831 2.10325H18.1864C18.1416 2.10325 18.1197 2.1283 18.1081 2.19673L18.0897 2.30433C18.0802 2.36042 18.0544 2.3703 18.0304 2.31386C17.9461 2.11418 17.7309 2.02458 17.4307 2.03163C16.7333 2.0461 16.263 2.57562 16.2126 3.25436C16.1738 3.77929 16.5498 4.19169 17.0458 4.19169C17.4057 4.19169 17.5665 4.08586 17.7479 3.92005L17.7458 3.91899ZM17.3672 3.64982C17.067 3.64982 16.8578 3.41029 16.9012 3.11678C16.9446 2.82327 17.2254 2.58373 17.5256 2.58373C17.8258 2.58373 18.035 2.82327 17.9916 3.11678C17.9482 3.41029 17.6674 3.64982 17.3672 3.64982ZM19.4532 4.13454H18.9311C18.922 4.13495 18.9129 4.13334 18.9046 4.12984C18.8962 4.12634 18.8887 4.12103 18.8826 4.11429C18.8765 4.10755 18.8719 4.09955 18.8693 4.09085C18.8666 4.08215 18.8659 4.07298 18.8672 4.06398L19.3258 1.15851C19.3302 1.13868 19.3412 1.12092 19.3569 1.10811C19.3727 1.0953 19.3923 1.08819 19.4126 1.08796H19.9347C19.9438 1.08755 19.9529 1.08915 19.9613 1.09265C19.9697 1.09615 19.9772 1.10146 19.9833 1.1082C19.9894 1.11494 19.9939 1.12295 19.9966 1.13164C19.9992 1.14034 19.9999 1.14952 19.9986 1.15851L19.54 4.06398C19.5357 4.08394 19.5248 4.10187 19.5091 4.11482C19.4933 4.12777 19.4736 4.13497 19.4532 4.13525V4.13454Z" fill="#009EE3"/>
<path fill-rule="evenodd" clip-rule="evenodd" d="M0.890411 0H2.25848C2.64371 0 3.10091 0.0123472 3.40642 0.282222C3.61068 0.462491 3.71792 0.749299 3.69323 1.05833C3.60927 2.10291 2.9845 2.68816 2.1463 2.68816H1.47179C1.35678 2.68816 1.28094 2.76436 1.24848 2.97038L1.0601 4.16983C1.04775 4.24744 1.01424 4.2933 0.954264 4.29894H0.110068C0.0165823 4.29894 -0.0165791 4.22839 0.00776254 4.07246L0.614539 0.227894C0.638881 0.0733774 0.7239 0 0.890411 0Z" fill="#113984"/>
<path fill-rule="evenodd" clip-rule="evenodd" d="M1.26823 2.8487L1.50706 1.33634C1.52788 1.2037 1.60055 1.1402 1.74519 1.1402H3.11185C3.33798 1.1402 3.52107 1.17548 3.6643 1.24074C3.52707 2.17066 2.92558 2.68713 2.13818 2.68713H1.46473C1.37442 2.68748 1.3081 2.73264 1.26823 2.8487Z" fill="#172C70"/>
</svg>
