<svg width="24" height="24" viewBox="0 0 24 24" fill="inherit" xmlns="http://www.w3.org/2000/svg">
<path d="M11.6864 2.5C12.8625 2.49964 14.0077 2.87629 14.954 3.57467C15.9003 4.27305 16.5978 5.25638 16.9442 6.38032C17.2905 7.50427 17.2675 8.70964 16.8784 9.81952C16.4893 10.9294 15.7547 11.8853 14.7824 12.547C16.4701 13.166 17.9338 14.2759 18.9853 15.7339C20.0368 17.1919 20.6278 18.9312 20.6824 20.728C20.6875 20.8277 20.6726 20.9275 20.6387 21.0214C20.6047 21.1153 20.5523 21.2015 20.4846 21.2749C20.4169 21.3483 20.3352 21.4074 20.2443 21.4488C20.1534 21.4902 20.0552 21.513 19.9554 21.516C19.8556 21.5189 19.7562 21.5019 19.663 21.4659C19.5699 21.4299 19.4848 21.3756 19.4129 21.3063C19.341 21.237 19.2837 21.1541 19.2443 21.0623C19.2049 20.9706 19.1842 20.8719 19.1834 20.772C19.1239 18.8235 18.3079 16.9747 16.9086 15.6174C15.5092 14.2602 13.6364 13.5011 11.6869 13.5011C9.73745 13.5011 7.8646 14.2602 6.46523 15.6174C5.06586 16.9747 4.24995 18.8235 4.1904 20.772C4.18443 20.9709 4.09969 21.1593 3.95482 21.2957C3.80995 21.4322 3.61681 21.5055 3.4179 21.4995C3.21899 21.4935 3.03059 21.4088 2.89416 21.2639C2.75773 21.119 2.68443 20.9259 2.6904 20.727C2.74515 18.9304 3.3363 17.1913 4.38776 15.7335C5.43923 14.2757 6.9029 13.1659 8.5904 12.547C7.61809 11.8853 6.88348 10.9294 6.4944 9.81952C6.10532 8.70964 6.08227 7.50427 6.42861 6.38032C6.77496 5.25638 7.47247 4.27305 8.41876 3.57467C9.36506 2.87629 10.5103 2.49964 11.6864 2.5ZM7.6864 8C7.6864 9.06087 8.10783 10.0783 8.85797 10.8284C9.60812 11.5786 10.6255 12 11.6864 12C12.7473 12 13.7647 11.5786 14.5148 10.8284C15.265 10.0783 15.6864 9.06087 15.6864 8C15.6864 6.93913 15.265 5.92172 14.5148 5.17157C13.7647 4.42143 12.7473 4 11.6864 4C10.6255 4 9.60812 4.42143 8.85797 5.17157C8.10783 5.92172 7.6864 6.93913 7.6864 8Z" fill="#27232A"/>
</svg>
