<svg width="24" height="24" viewBox="0 0 24 24" fill="inherit" xmlns="http://www.w3.org/2000/svg">
<path fill-rule="evenodd" clip-rule="evenodd" d="M19.821 18.9553L16.0219 15.1716H16.0018C18.3371 12.381 18.064 8.24422 15.3824 5.78558C12.7007 3.32694 8.56106 3.41812 5.98996 5.99246C3.41885 8.5668 3.32779 12.7116 5.78334 15.3967C8.23889 18.0817 12.3705 18.3551 15.1576 16.0169H15.1777L18.9566 19.8208C19.111 19.9753 19.3361 20.0357 19.547 19.9791C19.7579 19.9226 19.9226 19.7576 19.9792 19.5464C20.0357 19.3352 19.9754 19.1099 19.821 18.9553ZM10.7957 16.3792C7.70948 16.3792 5.20763 13.8742 5.20763 10.7841C5.20763 7.69402 7.70948 5.18902 10.7957 5.18902C13.8819 5.18902 16.3837 7.69402 16.3837 10.7841C16.3837 12.268 15.795 13.6911 14.747 14.7404C13.6991 15.7897 12.2777 16.3792 10.7957 16.3792Z" fill="#383838"/>
</svg>
