<svg width="24" height="24" viewBox="0 0 24 24" fill="inherit" xmlns="http://www.w3.org/2000/svg">
<path fill-rule="evenodd" clip-rule="evenodd" d="M19.2584 6.5923L18.0179 7.83333L14.9167 4.72693L16.1572 3.4859C16.4099 3.2331 16.8502 3.2331 17.1029 3.4859L19.2584 5.64621C19.5188 5.90667 19.5188 6.33184 19.2584 6.5923ZM9.3833 16.2593L6.49074 13.3671L13.9685 5.88889L16.8611 8.78104L9.3833 16.2593ZM6.1083 14.3148L8.43518 16.6428L5.19444 17.5556L6.1083 14.3148ZM20.1419 4.61832L18.1311 2.6039C17.7382 2.21101 16.3203 1.4681 15.1881 2.6039L4.99826 12.801C4.90897 12.8903 4.84468 12.9975 4.81253 13.1189L3.27673 18.5871C3.2053 18.8407 3.28031 19.1122 3.46246 19.3015C3.64818 19.4908 4.01963 19.5229 4.17678 19.4872L9.64136 17.9478C9.7628 17.9157 9.86995 17.8514 9.95924 17.7621L20.1419 7.56496C20.9527 6.75419 20.9527 5.43267 20.1419 4.61832ZM3.875 20.75H20.125C20.4702 20.75 20.75 21.0298 20.75 21.375C20.75 21.7202 20.4702 22 20.125 22H3.875C3.52982 22 3.25 21.7202 3.25 21.375C3.25 21.0298 3.52982 20.75 3.875 20.75Z" fill="#383838"/>
</svg>
