<svg width="24" height="24" viewBox="0 0 24 24" fill="inherit" xmlns="http://www.w3.org/2000/svg">
<path fill-rule="evenodd" clip-rule="evenodd" d="M20.5799 4.04504L19.6961 3.16116L16.5428 6.31443C15.08 5.57776 13.504 5.13459 12.0255 5.12499H11.9745C8.04592 5.15051 3.42857 8.23724 2.07653 11.7576L2 11.9362L2.07653 12.1148C2.75673 13.8859 4.26339 15.5472 6.09303 16.7642L3.78617 19.0711L4.67005 19.9549L7.20009 17.4249L7.93614 16.6889L10.1249 14.5001L16.9531 7.67189L17.6704 6.95454L20.5799 4.04504ZM15.7999 7.05734C14.558 6.48284 13.2404 6.1454 12 6.1454C8.50513 6.1454 4.39796 8.82399 3.09694 11.9362C3.75818 13.518 5.14427 14.9877 6.80645 16.0508L9.29369 13.5636C9.02962 13.1076 8.87756 12.5785 8.87506 12.0139C8.86737 10.2907 10.2561 8.88656 11.9792 8.87506C12.5399 8.87131 13.0859 9.01837 13.5632 9.29406L15.7999 7.05734ZM12 17.7271C11.0816 17.7271 10.1209 17.5421 9.17994 17.2129L8.40531 17.9874C9.587 18.4638 10.8109 18.7399 11.9745 18.7474H12.0255C15.9541 18.7219 20.5714 15.6352 21.9235 12.1148L22 11.9362L21.9235 11.7576C21.3454 10.2524 20.1704 8.82656 18.7075 7.68528L18.0038 8.38893C19.2999 9.38043 20.3526 10.6195 20.9031 11.9362C19.6021 15.0485 15.4949 17.7271 12 17.7271ZM15.0542 11.3386L11.338 15.0547C11.5536 15.1012 11.7774 15.1255 12.0069 15.125C13.7301 15.1212 15.1249 13.7232 15.125 12.0001C15.125 11.7759 15.1009 11.5542 15.0542 11.3386Z" fill="#383838"/>
</svg>
