<svg width="20" height="24" viewBox="0 0 20 24" fill="inherit" xmlns="http://www.w3.org/2000/svg">
<path fill-rule="evenodd" clip-rule="evenodd" d="M9.77583 23.4176C9.91455 23.4976 10.0855 23.4976 10.2242 23.4176L19.7758 17.9029C19.9145 17.8228 20 17.6748 20 17.5146V6.48533C20 6.32515 19.9145 6.17714 19.7758 6.09705L10.2242 0.582465C10.0855 0.502378 9.91455 0.502378 9.77583 0.582465L0.224174 6.09705C0.0854547 6.17714 0 6.32515 0 6.48533V17.5146C0 17.6748 0.0854542 17.8228 0.224173 17.9029L9.77583 23.4176ZM0.896688 17.2558V6.74418L10 1.48845L19.1033 6.74418V17.2558L10 22.5116L0.896688 17.2558Z" fill="#383838"/>
<path fill-rule="evenodd" clip-rule="evenodd" d="M9.77582 12.3882C9.91454 12.4683 10.0854 12.4683 10.2242 12.3882L19.5614 6.99744C19.7758 6.87363 19.8493 6.59943 19.7255 6.38499C19.6017 6.17055 19.3275 6.09707 19.113 6.22088L9.99999 11.4822L0.817096 6.18053C0.602656 6.05672 0.328453 6.1302 0.204648 6.34464C0.0808422 6.55908 0.154316 6.83328 0.368756 6.95709L9.77582 12.3882Z" fill="#383838"/>
<path fill-rule="evenodd" clip-rule="evenodd" d="M10 23.2198C10.2476 23.2198 10.4483 23.0191 10.4483 22.7714V11.9999C10.4483 11.7523 10.2476 11.5516 10 11.5516C9.75239 11.5516 9.55166 11.7523 9.55166 11.9999V22.7714C9.55166 23.0191 9.75239 23.2198 10 23.2198Z" fill="#383838"/>
<path fill-rule="evenodd" clip-rule="evenodd" d="M12.7888 14.7176C12.9669 14.7815 13.1659 14.7269 13.2863 14.581L15.0356 12.4608L16.3008 12.7381C16.4334 12.7672 16.5721 12.7346 16.6778 12.6495C16.7836 12.5644 16.8451 12.4359 16.8451 12.3001V8.30683C16.8451 8.14665 16.7597 7.99864 16.621 7.91855L7.21388 2.48736C6.99944 2.36355 6.72524 2.43702 6.60143 2.65146C6.47763 2.8659 6.5511 3.1401 6.76554 3.26391L15.9484 8.56568V11.7429L14.96 11.5263C14.7958 11.4903 14.6252 11.5492 14.5182 11.6789L13.3888 13.0478V10.3023C13.3888 10.1421 13.3033 9.99413 13.1646 9.91404L3.75756 4.48285C3.54312 4.35904 3.26891 4.43251 3.14511 4.64695C3.0213 4.86139 3.09477 5.13559 3.30921 5.2594L12.4921 10.5612V14.2956C12.4921 14.4848 12.6108 14.6536 12.7888 14.7176Z" fill="#383838"/>
<path fill-rule="evenodd" clip-rule="evenodd" d="M4.62677 17.6853C4.75058 17.4709 4.6771 17.1967 4.46266 17.0729L2.41624 15.8914C2.2018 15.7676 1.9276 15.8411 1.80379 16.0555C1.67999 16.27 1.75346 16.5442 1.9679 16.668L4.01432 17.8494C4.22877 17.9732 4.50297 17.8998 4.62677 17.6853Z" fill="#383838"/>
<path fill-rule="evenodd" clip-rule="evenodd" d="M3.70579 15.136C3.82959 14.9216 3.75611 14.6474 3.54167 14.5236L2.41624 13.8738C2.20179 13.75 1.92759 13.8235 1.80379 14.0379C1.67999 14.2524 1.75346 14.5266 1.96791 14.6504L3.09334 15.3001C3.30778 15.4239 3.58198 15.3504 3.70579 15.136Z" fill="#383838"/>
</svg>
