<svg width="24" height="24" viewBox="0 0 24 24" fill="inherit" xmlns="http://www.w3.org/2000/svg">
<g clip-path="url(#clip0_898_2152)">
<path fill-rule="evenodd" clip-rule="evenodd" d="M19.0711 5.07107C22.9701 8.97012 22.9701 15.3141 19.0711 19.2132C15.172 23.1123 8.82843 23.1127 4.92893 19.2132C1.02988 15.3141 1.02988 8.97012 4.92893 5.07107C8.82799 1.17201 15.1716 1.17157 19.0711 5.07107ZM18.0607 6.08141C14.7071 2.72775 9.29205 2.72775 5.93839 6.08141C2.58473 9.43507 2.58473 14.8501 5.93839 18.2037C9.29205 21.5574 14.7075 21.557 18.0607 18.2037C21.4139 14.8505 21.4144 9.43507 18.0607 6.08141ZM16.0476 8.09458C16.3269 8.3739 16.3264 8.82604 16.0476 9.10492L13.0103 12.1413L16.0471 15.1798C16.2985 15.4312 16.3236 15.8222 16.1225 16.1015L16.0471 16.1901C15.7678 16.4695 15.3157 16.469 15.0368 16.1901L11.9991 13.1524L8.96235 16.1901C8.71095 16.4415 8.31994 16.4667 8.04063 16.2656L7.952 16.1901C7.67268 15.9108 7.67312 15.4587 7.952 15.1798L10.9888 12.1421L7.95156 9.10492C7.70017 8.85353 7.67503 8.46252 7.87614 8.1832L7.95156 8.09458C8.23089 7.81526 8.68302 7.8157 8.9619 8.09458L12 11.131L15.0372 8.09458C15.2886 7.84319 15.6796 7.81805 15.9589 8.01916L16.0476 8.09458Z" fill="#383838"/>
</g>
<defs>
<clipPath id="clip0_898_2152">
<rect width="24" height="24" fill="white"/>
</clipPath>
</defs>
</svg>
