<svg width="24" height="24" viewBox="0 0 24 24" fill="inherit" xmlns="http://www.w3.org/2000/svg">
<g clip-path="url(#clip0_4798_237)">
<path d="M18.9756 14.4428C18.8967 14.3586 18.8168 14.275 18.7347 14.193C17.3396 12.7979 15.6299 11.8319 13.7656 11.3607C15.7366 10.378 17.0939 8.34141 17.0939 5.99348C17.0939 2.68866 14.4052 0 11.1004 0C7.7956 0 5.10694 2.68866 5.10694 5.99344C5.10694 8.34136 6.4643 10.3779 8.43525 11.3606C6.57099 11.8319 4.86127 12.7979 3.46617 14.193C1.42702 16.2321 0.303986 18.9433 0.303986 21.8272C0.303986 22.0913 0.518017 22.3053 0.782064 22.3053H15.2698C16.1471 23.3411 17.4565 24 18.9171 24C21.5522 24 23.696 21.8562 23.696 19.221C23.696 16.6055 21.5838 14.4743 18.9756 14.4428ZM6.0631 5.99344C6.0631 3.21591 8.32285 0.956156 11.1004 0.956156C13.8779 0.956156 16.1377 3.21591 16.1377 5.99344C16.1377 8.77097 13.8779 11.0308 11.1004 11.0308C8.32285 11.0308 6.0631 8.77106 6.0631 5.99344ZM1.27158 21.3491C1.52185 16.1443 5.83477 11.9869 11.1004 11.9869C13.6643 11.9869 16.002 12.9729 17.7551 14.5852C15.6797 15.1056 14.1381 16.9866 14.1381 19.221C14.1381 19.9852 14.3186 20.7079 14.639 21.3491L1.27158 21.3491ZM18.9171 23.0438C16.8091 23.0438 15.0942 21.3289 15.0942 19.221C15.0942 17.1132 16.8091 15.3983 18.9171 15.3983C21.0249 15.3983 22.7399 17.1132 22.7399 19.221C22.7399 21.3289 21.0249 23.0438 18.9171 23.0438Z" fill="black"/>
<path d="M20.8879 18.8295H19.4021V17.3438C19.4021 17.0798 19.188 16.8657 18.924 16.8657C18.66 16.8657 18.446 17.0798 18.446 17.3438V18.8295H16.9602C16.6962 18.8295 16.4821 19.0436 16.4821 19.3076C16.4821 19.5717 16.6962 19.7857 16.9602 19.7857H18.446V21.2715C18.446 21.5355 18.66 21.7496 18.924 21.7496C19.188 21.7496 19.4021 21.5355 19.4021 21.2715V19.7857H20.8879C21.1519 19.7857 21.366 19.5717 21.366 19.3076C21.366 19.0436 21.1519 18.8295 20.8879 18.8295Z" fill="black"/>
</g>
<defs>
<clipPath id="clip0_4798_237">
<rect width="24" height="24" fill="white"/>
</clipPath>
</defs>
</svg>
