<svg width="24" height="24" viewBox="0 0 24 24" fill="inherit" xmlns="http://www.w3.org/2000/svg">
<path d="M10.9426 15.3677C11.0186 15.4268 11.079 15.497 11.1201 15.5742C11.1613 15.6515 11.1825 15.7343 11.1825 15.8179C11.1825 15.9015 11.1613 15.9843 11.1201 16.0616C11.079 16.1388 11.0186 16.209 10.9426 16.2681L7.66999 18.8134C7.59401 18.8725 7.50378 18.9195 7.40446 18.9515C7.30514 18.9835 7.19867 19 7.09116 19C6.98364 19 6.87718 18.9835 6.77786 18.9515C6.67854 18.9195 6.58831 18.8725 6.51232 18.8134L3.23976 16.2681C3.16375 16.209 3.10345 16.1388 3.06231 16.0616C3.02117 15.9843 3 15.9015 3 15.8179C3 15.7343 3.02117 15.6515 3.06231 15.5743C3.10345 15.497 3.16375 15.4268 3.23976 15.3677C3.39328 15.2483 3.60149 15.1812 3.8186 15.1812C3.92609 15.1812 4.03254 15.1977 4.13186 15.2297C4.23117 15.2617 4.32142 15.3086 4.39743 15.3677L6.27302 16.8273V5.63682C6.27302 5.46806 6.35921 5.30621 6.51264 5.18687C6.66608 5.06754 6.87417 5.0005 7.09116 5.0005C7.30814 5.0005 7.51624 5.06754 7.66967 5.18687C7.8231 5.30621 7.9093 5.46806 7.9093 5.63682V16.8273L9.78488 15.3677C9.86087 15.3086 9.9511 15.2616 10.0504 15.2296C10.1497 15.1976 10.2562 15.1811 10.3637 15.1811C10.4712 15.1811 10.5777 15.1976 10.677 15.2296C10.7763 15.2616 10.8666 15.3086 10.9426 15.3677ZM20.7602 7.7319L17.4877 5.18662C17.4117 5.12746 17.3215 5.08053 17.2221 5.0485C17.1228 5.01648 17.0164 5 16.9088 5C16.8013 5 16.6949 5.01648 16.5955 5.0485C16.4962 5.08053 16.406 5.12746 16.33 5.18662L13.0574 7.7319C12.9039 7.8513 12.8177 8.01324 12.8177 8.18209C12.8177 8.35095 12.9039 8.51289 13.0574 8.63229C13.211 8.75169 13.4192 8.81876 13.6363 8.81876C13.8534 8.81876 14.0616 8.75169 14.2151 8.63229L16.0907 7.17273V18.3632C16.0907 18.5319 16.1769 18.6938 16.3303 18.8131C16.4838 18.9325 16.6919 18.9995 16.9088 18.9995C17.1258 18.9995 17.3339 18.9325 17.4874 18.8131C17.6408 18.6938 17.727 18.5319 17.727 18.3632V7.17273L19.6026 8.63229C19.7561 8.75169 19.9643 8.81876 20.1814 8.81876C20.3985 8.81876 20.6067 8.75169 20.7602 8.63229C20.9138 8.51289 21 8.35095 21 8.18209C21 8.01324 20.9138 7.8513 20.7602 7.7319Z" fill="#383838"/>
</svg>
