<svg width="24" height="24" viewBox="0 0 24 24" fill="inherit" xmlns="http://www.w3.org/2000/svg">
<path fill-rule="evenodd" clip-rule="evenodd" d="M12.1594 13.8406C7.64326 13.8406 4.72106 15.7381 4.11385 19.0019C4.03795 19.4953 4 20.8994 4 21.0512C4 21.5825 4.41746 22 4.94877 22C5.48008 22 5.89753 21.5825 5.89753 21.0512C5.89753 20.5958 5.93548 19.5712 5.97343 19.3435C6.54269 16.1935 10.0721 15.7381 12.1594 15.7381C13.9051 15.7381 18.0038 16.1176 18.3833 19.685C18.3833 19.8368 18.4213 20.482 18.4213 20.8235C18.4213 21.3548 18.8387 21.7723 19.37 21.7723C19.9013 21.7723 20.3188 21.3548 20.3188 20.8235C20.3188 20.8235 20.3188 19.7989 20.2808 19.4573C19.9013 15.9658 16.8653 13.8406 12.1594 13.8406ZM12.1594 12.5503C14.74 12.5503 16.8653 10.0455 16.8653 6.97154C16.8653 4.04934 14.9298 2 12.1594 2C9.38899 2 7.45351 4.04934 7.45351 6.97154C7.45351 10.0455 9.57875 12.5503 12.1594 12.5503ZM12.1594 3.89753C13.8672 3.89753 14.9677 5.11195 14.9677 6.97154C14.9677 8.98292 13.7154 10.6528 12.1594 10.6528C10.6034 10.6528 9.35104 9.02087 9.35104 6.97154C9.35104 5.11195 10.4516 3.89753 12.1594 3.89753Z" fill="#383838"/>
</svg>
