<svg width="3043" height="2229" viewBox="0 0 3043 2229" fill="none" xmlns="http://www.w3.org/2000/svg">
<g filter="url(#filter0_d_2_216)">
<path d="M2343.97 871.244C2317.2 863.045 2307.08 837.586 2305.89 833.855V833.527C2301.53 823.352 2298.02 812.832 2295.39 802.083C2275.67 724.435 2211.1 676.182 2112.59 664.703C2080.32 590.908 2009.56 537.613 1922.98 523.92C1908.28 521.599 1893.42 520.419 1878.54 520.394C1876.76 520.394 1875 520.312 1873.25 520.148H1863.16C1840.25 520.058 1817.44 523.276 1795.44 529.7C1793.4 530.303 1791.22 530.204 1789.25 529.413L1786.5 528.306C1785.36 527.872 1784.43 527.007 1783.92 525.892C1783.41 524.776 1783.37 523.51 1783.79 522.362C1783.9 522.03 1784.06 521.714 1784.24 521.419C1787.4 516.499 1790.48 511.334 1793.35 506.086L1814.79 460.334C1827.7 427.069 1833.97 391.592 1833.24 355.915C1831.47 275.356 1800.68 201.357 1746.49 147.569C1692.29 93.7813 1618.58 63.2387 1537.69 60H1530.31C1512.53 60.2066 1494.81 62.2118 1477.43 65.9855C1448.64 72.2084 1419.27 75.3418 1389.82 75.3328C1365.46 75.2881 1341.15 73.2452 1317.13 69.2243C1313.61 68.4125 1310.03 67.905 1306.43 67.7074C1301.46 67.7061 1296.5 68.2838 1291.67 69.4292C1275.38 73.358 1261.32 83.5813 1252.56 97.8589C1243.8 112.136 1241.06 129.305 1244.93 145.601C1250.66 170.233 1260.36 193.77 1273.63 215.296C1261.37 236.957 1251.91 260.086 1245.47 284.129C1241.6 298.551 1234.08 311.729 1223.61 322.379C1202.34 344.165 1190.48 373.433 1190.57 403.881V404.127C1190.65 406.542 1190.08 408.932 1188.94 411.055C1187.78 413.183 1186.09 414.962 1184.02 416.213C1181.95 417.463 1179.59 418.144 1177.18 418.181C1174.76 418.218 1172.38 417.615 1170.28 416.426L1087.63 369.403L970.254 276.996L939.753 252.972C931.18 246.064 923.969 237.626 918.475 228.087C909.825 213.595 897.76 201.438 883.337 192.673C868.914 183.908 852.569 178.801 835.719 177.796C818.874 176.792 802.036 179.92 786.675 186.909C771.313 193.898 757.891 204.535 747.576 217.896C737.265 231.257 730.374 246.935 727.508 263.567C724.638 280.199 725.877 297.28 731.116 313.323C736.355 329.367 745.44 343.886 757.571 355.618C769.706 367.35 784.522 375.938 800.732 380.636C810.301 383.375 819.238 387.957 827.052 394.124L850.462 412.572L861.162 421.059L987.555 520.927C992.282 524.666 997.267 528.06 1002.48 531.094L1251.16 675.403C1256.05 678.236 1260.1 682.302 1262.91 687.197C1265.72 692.088 1267.2 697.635 1267.19 703.281V1162.81L1313.81 1513.62L1466.52 1526.74L1512.72 1530.84L1512.27 1494.72C1512.32 1479.43 1511.4 1464.15 1509.53 1448.97C1523.01 1405.92 1554.62 1370.18 1601.11 1345.33L1606.11 1342.67L1612.92 1339.47C1620.46 1335.86 1628.42 1332.54 1636.57 1329.55C1652.52 1323.65 1668.99 1319.3 1685.77 1316.55L1698.44 1322.25V1345.33H1749.64L1764.03 1351.81V1345.13H1819.71C1821.63 1346.64 1823.6 1348.08 1825.49 1349.64L1828.19 1351.89L1831.47 1354.76C1832.54 1355.7 1833.61 1356.65 1834.63 1357.63L1836.97 1359.93C1859.32 1382.56 1876.32 1409.9 1886.74 1439.95C1888.01 1443.4 1889.28 1447.13 1890.51 1451.1L1954.42 1437.86L1953.48 1428.72C1950.16 1397.97 1947.17 1374.93 1943.8 1355.25L2029.9 1346.19L2039.12 1435.61L2088.93 1376C2096.07 1367.09 2103.91 1358.77 2112.38 1351.11V1401.74V1446.59V1480.05L2167.11 1430.85C2168.67 1429.46 2170.19 1427.98 2171.75 1426.46C2195.07 1415.64 2214.79 1398.36 2228.6 1376.67C2242.4 1354.99 2249.7 1329.8 2249.64 1304.09V1004.24C2249.65 991.992 2247.99 979.8 2244.72 967.997C2244.16 965.861 2244.04 963.635 2244.34 961.446C2244.65 959.26 2245.38 957.153 2246.5 955.251C2247.62 953.345 2249.1 951.68 2250.87 950.352C2252.63 949.023 2254.63 948.052 2256.77 947.498C2258.11 947.15 2259.49 946.974 2260.87 946.965C2267.05 946.76 2273.21 946.186 2279.32 945.244C2309.6 939.959 2337.91 926.668 2361.32 906.748C2376.48 894.346 2389.8 879.854 2400.88 863.701C2376.44 874.647 2357.83 875.344 2343.97 871.244Z" fill="white"/>
</g>
<path d="M1874.41 704.296V1050.92C1874.41 1054.98 1872.79 1058.87 1869.92 1061.74C1867.06 1064.6 1863.17 1066.22 1859.11 1066.22H1300V704.296C1300.05 692.415 1301.43 680.575 1304.1 668.998C1313.37 629.132 1338.01 594.539 1372.65 572.737L1374.86 574.418C1425.87 612.459 1488.88 630.825 1552.34 626.16C1615.8 621.491 1675.45 594.096 1720.34 549C1757.85 549.209 1794 563.054 1822.05 587.947C1847.22 610.216 1864.49 640.054 1871.25 672.974C1871.45 674.122 1871.7 675.311 1871.9 676.459C1872.11 677.607 1872.15 677.771 1872.23 678.427C1873.67 686.975 1874.4 695.629 1874.41 704.296Z" fill="#D9D9D8"/>
<path d="M1870.63 1066V1348.34C1812.75 1282.5 1723.78 1263.11 1625.31 1299.15C1616.1 1302.51 1607.27 1306.2 1598.83 1310.22L1590.38 1248.35L1585.71 1214.2V1316.7C1528.02 1347.44 1490.51 1392.95 1476.04 1447.11C1478.46 1463.1 1479.61 1479.26 1479.48 1495.44L1469.28 1494.58L1342.84 1483.72L1317.71 1294.56L1300 1161.15V1066H1870.63Z" fill="#223050"/>
<path d="M1377.11 572.447L1374.65 574.333L1372.44 572.652C1337.79 594.397 1313.12 628.924 1303.77 668.748L1012.94 499.965L874 390.134C892.617 392.243 911.303 386.871 925.959 375.2C940.612 363.53 950.029 346.516 952.14 327.901C952.46 325.18 952.611 322.442 952.591 319.702C952.62 314.417 952.029 309.147 950.828 304L1069.27 397.227L1377.11 572.447Z" fill="#D1D1D1"/>
<path d="M952.901 319.863C952.922 329.14 951.114 338.331 947.584 346.91C944.05 355.489 938.86 363.287 932.312 369.859C925.761 376.431 917.98 381.647 909.416 385.21C900.848 388.773 891.664 390.612 882.387 390.623C879.648 390.62 876.909 390.47 874.187 390.172L827 352.865L827.369 352.455H829.583C840.385 352.435 851.036 349.946 860.728 345.178C870.42 340.41 878.894 333.489 885.498 324.944C892.107 316.399 896.67 306.457 898.847 295.877C901.02 285.297 900.749 274.36 898.047 263.902L898.744 263L951.015 303.997C952.278 309.191 952.909 314.517 952.901 319.863Z" fill="#ECEAEA"/>
<path d="M900.685 282.139C900.632 300.86 893.154 318.795 879.9 332.013C866.641 345.231 848.685 352.654 829.965 352.654H827.752C813.821 352.242 800.325 347.732 788.944 339.688C777.568 331.643 768.815 320.422 763.78 307.427C758.75 294.433 757.659 280.243 760.652 266.633C763.645 253.023 770.582 240.598 780.601 230.912C790.621 221.226 803.272 214.71 816.974 212.178C830.679 209.647 844.823 211.214 857.638 216.682C870.458 222.149 881.375 231.276 889.034 242.919C896.692 254.562 900.742 268.205 900.685 282.139Z" fill="#FAC6B8"/>
<path fill-rule="evenodd" clip-rule="evenodd" d="M1578.08 622.437C1587.49 620.788 1596.81 618.636 1606 616C1579.93 640.844 1567.55 661.342 1568.86 677.495C1569.26 683.321 1571.1 688.958 1574.23 693.894C1570.39 694.669 1566.49 695.05 1562.58 695.042C1551.92 695.087 1541.44 692.254 1532.25 686.842C1533.01 684.235 1533.49 681.558 1533.68 678.848C1534.88 664.253 1524.99 646.161 1504 624.568C1513.45 625.565 1522.95 626.073 1532.45 626.085C1547.74 626.184 1563 624.962 1578.08 622.437Z" fill="#E1AA9F"/>
<path fill-rule="evenodd" clip-rule="evenodd" d="M1672.98 615.147L1633.71 703.29C1632.02 707.066 1629.14 710.186 1625.51 712.17C1621.89 714.158 1617.71 714.896 1613.62 714.277C1594.27 711.379 1581.22 704.631 1574.46 694.025C1571.34 689.089 1569.5 683.452 1569.09 677.626C1567.78 661.391 1580.16 640.893 1606.24 616.131C1611.53 614.614 1616.73 612.933 1621.86 611.047C1623.74 610.391 1625.59 609.695 1627.47 608.957L1632.68 606.948C1633.08 606.825 1633.47 606.661 1633.83 606.456C1635.43 605.841 1636.98 605.144 1638.54 604.447L1644.77 601.618L1648.05 600.101L1654.61 596.699L1659.04 594.362C1661.05 593.296 1663.14 592.189 1664.94 591L1667.36 592.927C1670.59 595.514 1672.89 599.081 1673.91 603.094C1674.92 607.104 1674.6 611.338 1672.98 615.147Z" fill="#ECEAEA"/>
<path fill-rule="evenodd" clip-rule="evenodd" d="M1534.51 679.122C1534.32 681.832 1533.84 684.509 1533.08 687.117C1528.54 702.695 1514.18 712.26 1489.99 715.814C1485.9 716.446 1481.71 715.716 1478.08 713.728C1474.45 711.743 1471.58 708.611 1469.9 704.827L1430.63 616.684C1428.99 613.015 1428.57 608.923 1429.44 605C1452.95 615.073 1477.82 621.649 1503.23 624.514V623.203L1504.75 624.678C1525.79 646.325 1535.72 664.474 1534.51 679.122Z" fill="#ECEAEA"/>
<path d="M1774.37 468.713C1772.65 472.813 1770.76 476.625 1768.84 480.479C1767.77 482.57 1766.71 484.579 1765.64 486.588C1765.07 487.571 1764.53 488.637 1763.96 489.621C1759.22 498.276 1753.94 506.627 1748.18 514.629C1726.15 545.631 1697.71 571.529 1664.79 590.555C1651.06 598.566 1636.6 605.265 1621.62 610.562C1621.13 608.053 1620.5 605.577 1619.73 603.141C1614.81 607.241 1610.23 611.341 1606 615.44C1596.81 618.076 1587.49 620.229 1578.08 621.877C1563.01 624.554 1547.75 625.923 1532.45 625.977C1522.95 625.964 1513.45 625.456 1504 624.46L1502.48 622.984V624.296C1457.46 619.089 1414.52 602.412 1377.77 575.866C1341.03 549.321 1311.72 513.793 1292.63 472.681C1273.54 431.566 1265.32 386.243 1268.76 341.046C1272.2 295.848 1287.18 252.289 1312.26 214.533L1312.63 214C1370.02 286.1 1483.95 311.627 1654.42 290.582C1656.33 322.56 1661.97 354.206 1671.22 384.875C1674.64 381.552 1678.81 379.106 1683.38 377.746C1687.95 376.386 1692.77 376.152 1697.45 377.064C1702.13 377.976 1706.51 380.007 1710.24 382.983C1713.96 385.959 1716.91 389.793 1718.83 394.155C1720.74 398.518 1721.58 403.278 1721.25 408.034C1720.93 412.789 1719.46 417.393 1716.97 421.46C1714.48 425.523 1711.04 428.921 1706.95 431.369C1702.87 433.812 1698.24 435.235 1693.49 435.506C1701 448.079 1710.72 459.189 1722.18 468.303L1723.33 469.123C1733.72 477.117 1745.86 482.529 1758.75 484.907H1759.57C1761.54 485.276 1763.67 485.522 1765.52 485.768L1768.84 479.782C1770.52 476.543 1772.53 472.649 1774.37 468.713Z" fill="#FAC6B8"/>
<path d="M1307.15 321C1294.52 320.963 1282.06 323.868 1270.75 329.487C1254.33 337.606 1241.01 350.872 1232.83 367.262C1224.65 383.652 1222.06 402.268 1225.45 420.27C1228.83 438.272 1238.01 454.67 1251.59 466.969C1265.16 479.268 1282.38 486.791 1300.63 488.39C1302.76 488.39 1304.98 488.677 1307.15 488.677C1329.38 488.677 1350.71 479.842 1366.43 464.12C1382.15 448.398 1390.99 427.075 1390.99 404.839C1390.99 382.603 1382.15 361.279 1366.43 345.556C1350.71 329.834 1329.38 321 1307.15 321ZM1307.15 481.298C1303.61 481.281 1300.07 481.023 1296.57 480.519C1280.88 478.121 1266.31 470.905 1254.89 459.869C1243.47 448.832 1235.76 434.52 1232.83 418.913C1229.9 403.305 1231.89 387.173 1238.53 372.746C1245.17 358.319 1256.12 346.311 1269.88 338.383C1281.25 331.857 1294.13 328.422 1307.23 328.421C1327.2 328.883 1346.19 337.14 1360.15 351.424C1374.11 365.709 1381.92 384.888 1381.92 404.859C1381.92 424.833 1374.11 444.011 1360.15 458.294C1346.19 472.578 1327.2 480.834 1307.23 481.298H1307.15Z" fill="#304063"/>
<path d="M1486.49 321.003C1469.91 320.873 1453.67 325.664 1439.8 334.768C1425.95 343.873 1415.1 356.882 1408.63 372.151C1402.17 387.42 1400.38 404.263 1403.49 420.551C1406.59 436.839 1414.46 451.84 1426.1 463.655C1437.73 475.47 1452.6 483.571 1468.84 486.937C1485.08 490.299 1501.95 488.77 1517.31 482.542C1532.68 476.319 1545.86 465.676 1555.18 451.963C1564.5 438.249 1569.54 422.076 1569.67 405.497V405.046C1569.74 394.065 1567.63 383.18 1563.48 373.013C1559.33 362.846 1553.22 353.595 1545.49 345.79C1537.77 337.985 1528.58 331.779 1518.46 327.526C1508.33 323.273 1497.47 321.056 1486.49 321.003ZM1486.49 481.3C1471.37 481.435 1456.55 477.085 1443.9 468.8C1431.25 460.515 1421.34 448.662 1415.43 434.744C1409.52 420.826 1407.86 405.468 1410.68 390.611C1413.49 375.753 1420.65 362.065 1431.24 351.275C1441.84 340.485 1455.4 333.079 1470.2 329.994C1485 326.908 1500.39 328.282 1514.41 333.941C1528.44 339.6 1540.46 349.29 1548.98 361.786C1557.5 374.282 1562.11 389.023 1562.25 404.144V405.046C1562.27 425.188 1554.3 444.518 1540.11 458.805C1525.91 473.092 1506.63 481.181 1486.49 481.3Z" fill="#304063"/>
<path d="M1303.79 400.582C1310.85 400.582 1316.58 394.855 1316.58 387.791C1316.58 380.727 1310.85 375 1303.79 375C1296.73 375 1291 380.727 1291 387.791C1291 394.855 1296.73 400.582 1303.79 400.582Z" fill="#304063"/>
<path d="M1452.79 400.582C1459.85 400.582 1465.58 394.855 1465.58 387.791C1465.58 380.727 1459.85 375 1452.79 375C1445.73 375 1440 380.727 1440 387.791C1440 394.855 1445.73 400.582 1452.79 400.582Z" fill="#304063"/>
<path opacity="0.23" d="M1290.66 383.322C1299.31 383.322 1306.32 376.31 1306.32 367.661C1306.32 359.012 1299.31 352 1290.66 352C1282.01 352 1275 359.012 1275 367.661C1275 376.31 1282.01 383.322 1290.66 383.322Z" fill="white"/>
<path opacity="0.23" d="M1450.66 377.322C1459.31 377.322 1466.32 370.31 1466.32 361.661C1466.32 353.011 1459.31 346 1450.66 346C1442.01 346 1435 353.011 1435 361.661C1435 370.31 1442.01 377.322 1450.66 377.322Z" fill="white"/>
<path d="M1427.9 467C1427.6 475.408 1424.05 483.37 1418 489.212C1411.94 495.05 1403.86 498.317 1395.45 498.317C1387.04 498.317 1378.95 495.05 1372.9 489.212C1366.85 483.37 1363.3 475.408 1363 467H1427.9Z" fill="#B49588"/>
<path fill-rule="evenodd" clip-rule="evenodd" d="M1563.67 705.271C1561.15 702.754 1557.95 701.04 1554.47 700.348C1550.98 699.651 1547.37 700.007 1544.08 701.368C1540.8 702.729 1537.99 705.034 1536.02 707.993C1534.05 710.949 1533 714.426 1533 717.98V1002.25C1533 1007.02 1534.89 1011.58 1538.26 1014.95C1541.63 1018.32 1546.19 1020.21 1550.96 1020.21C1555.72 1020.21 1560.29 1018.32 1563.65 1014.95C1567.02 1011.58 1568.91 1007.02 1568.91 1002.25V717.98C1568.91 713.216 1567.03 708.645 1563.67 705.271Z" fill="#304063"/>
<path fill-rule="evenodd" clip-rule="evenodd" d="M1774.99 469.47C1773.15 473.569 1771.14 477.3 1769.09 481.154L1765.77 487.139C1763.88 487.139 1762.04 486.688 1760.19 486.36H1759.01C1746.11 483.982 1733.97 478.571 1723.58 470.577L1722.44 469.757C1710.97 460.643 1701.25 449.533 1693.74 436.959C1698.49 436.68 1703.11 435.254 1707.2 432.806C1711.28 430.355 1714.71 426.952 1717.2 422.889C1719.68 418.822 1721.14 414.218 1721.46 409.467C1721.78 404.711 1720.94 399.952 1719.03 395.593C1717.11 391.233 1714.16 387.403 1710.44 384.43C1706.71 381.457 1702.33 379.428 1697.65 378.518C1692.98 377.608 1688.15 377.843 1683.58 379.202C1679.02 380.563 1674.85 383.007 1671.44 386.328C1662.18 355.659 1656.54 324.014 1654.63 292.036C1484.24 313.135 1370.37 287.608 1313 215.454C1295.49 192.977 1283.16 166.911 1276.88 139.118C1274.95 131.267 1276.22 122.972 1280.4 116.053C1284.58 109.135 1291.34 104.16 1299.19 102.22H1299.39C1303.42 101.286 1307.6 101.146 1311.69 101.81C1369 111.677 1427.67 110.466 1484.53 98.2438C1501.54 94.4647 1518.93 92.717 1536.35 93.0372C1685.99 99.0637 1797.01 207.295 1800.21 356.892C1800.81 395.882 1792.17 434.458 1774.99 469.47Z" fill="#304063"/>
<path d="M1766.56 486.85C1765.99 487.834 1765.45 488.9 1764.88 489.883C1760.14 498.538 1754.86 506.889 1749.1 514.891C1727.07 545.893 1698.63 571.791 1665.71 590.817C1663.78 592.006 1661.81 593.113 1659.8 594.179L1655.34 596.598L1648.74 599.96L1645.46 601.477C1643.41 602.461 1641.36 603.444 1639.22 604.305C1637.09 605.166 1636.11 605.699 1634.51 606.314C1634.14 606.519 1633.76 606.683 1633.36 606.806L1628.16 608.815C1626.27 609.553 1624.42 610.25 1622.54 610.906C1617.41 612.792 1612.21 614.473 1606.92 615.99C1597.73 618.626 1588.41 620.778 1579 622.426C1644.59 591.441 1696.24 537.083 1723.84 470C1734.23 477.994 1746.37 483.406 1759.26 485.784H1760.45C1762.46 486.3 1764.5 486.657 1766.56 486.85Z" fill="#E9B8AE"/>
<path fill-rule="evenodd" clip-rule="evenodd" d="M2216.28 1005.7V1303.9C2216.28 1324.24 2210.04 1344.11 2198.38 1360.95C2186.71 1377.8 2170.14 1390.86 2150.81 1398.45C2148.39 1399.44 2145.92 1400.31 2143.41 1401.06L2143.78 1312.14V1049.25C2143.83 1048.98 2143.83 1048.7 2143.78 1048.43C2143.83 1048.15 2143.83 1047.86 2143.78 1047.57C2143.83 1046.46 2143.74 1045.34 2143.53 1044.23V1042.32C2143.58 1041.52 2143.47 1040.72 2143.24 1039.95C2143.28 1039.76 2143.28 1039.57 2143.24 1039.38C2143.28 1038.96 2143.28 1038.54 2143.24 1038.12C2143.28 1037.9 2143.28 1037.68 2143.24 1037.46C2143.28 1037.25 2143.28 1037.03 2143.24 1036.81C2143.2 1036.3 2143.12 1035.8 2142.99 1035.3C2142.93 1034.37 2142.76 1033.43 2142.49 1032.53C2142.16 1030.86 2141.82 1029.23 2141.4 1027.6V1027.19V1026.21C2141.44 1025.96 2141.44 1025.69 2141.4 1025.44V1024.05C2141.32 1023.6 2141.18 1023.16 2140.98 1022.75L2140.61 1021.61C2140.63 1021.56 2140.64 1021.51 2140.64 1021.46C2140.64 1021.41 2140.63 1021.37 2140.61 1021.32C2140.3 1020.34 2139.97 1019.36 2139.61 1018.38L2138.61 1015.57C2138.27 1014.67 2137.89 1013.74 2137.52 1012.84C2137.14 1011.94 2136.77 1011.01 2136.35 1010.11C2135.93 1009.21 2135.43 1008.07 2134.93 1007.09C2134.73 1006.57 2134.49 1006.07 2134.22 1005.58C2133.72 1004.56 2133.22 1003.58 2132.63 1002.61C2132.54 1002.35 2132.41 1002.1 2132.25 1001.87C2132.14 1001.6 2132 1001.34 2131.83 1001.1C2131.42 1000.36 2131 999.588 2130.54 998.854C2130.08 998.12 2129.62 997.304 2129.12 996.529C2128.24 995.021 2127.24 993.594 2126.28 992.167L2125.98 991.843C2125.9 991.643 2125.77 991.462 2125.61 991.31C2125.38 990.892 2125.12 990.499 2124.82 990.13V989.843C2124.57 989.56 2124.36 989.232 2124.11 988.908L2123.56 988.174L2123.23 987.764L2122.27 986.543C2121.1 985.034 2119.93 983.566 2118.63 982.14C2117.34 980.713 2116.79 980.02 2115.79 979.04C2115.62 978.802 2115.42 978.585 2115.21 978.388L2114.03 977.204L2112.74 975.941L2111.28 974.514L2109.02 972.436C2108.27 971.784 2107.6 971.132 2106.89 970.558C2106.39 970.07 2105.84 969.619 2105.26 969.213C2104.71 968.656 2104.11 968.151 2103.46 967.705C2102.86 967.172 2102.22 966.68 2101.54 966.237C2100.66 965.503 2099.7 964.81 2098.74 964.117L2098.11 963.711C2096.99 962.896 2095.82 962.121 2094.6 961.346C2093.39 960.571 2092.05 959.714 2090.76 958.98L2088.04 957.431L2085.7 956.127C2082.78 954.602 2079.76 953.241 2076.68 952.048C2075.05 951.355 2073.42 950.744 2071.79 950.133C2070.16 949.523 2068.57 948.994 2066.9 948.502C2065.23 948.014 2063.64 947.485 2062.05 947.075C2060.55 946.628 2059.04 946.259 2057.5 945.935H2056.83C2055.28 945.566 2053.7 945.283 2052.11 944.996H2051.73C2050.23 944.709 2048.73 944.509 2047.18 944.345H2045.42C2044.65 944.185 2043.87 944.09 2043.08 944.058L2038.91 943.734H1999C2000.63 942.59 2002.26 941.45 2003.85 940.265L2008.44 936.76C2010.66 935.047 2012.83 933.296 2014.92 931.459C2022.11 925.404 2028.87 918.894 2035.19 911.974L2038.24 908.505C2038.53 908.214 2038.79 907.898 2039.03 907.57C2039.78 906.755 2040.49 905.898 2041.2 905H2111.82C2139.31 905 2165.69 915.569 2185.25 934.419C2204.8 953.27 2215.95 978.884 2216.28 1005.7Z" fill="#FFC828"/>
<path fill-rule="evenodd" clip-rule="evenodd" d="M1731.78 1208.84V1300.84L1620.64 1250.7C1618.3 1249.67 1616.08 1248.4 1614 1246.93C1624.68 1244.02 1634.11 1237.68 1640.83 1228.88C1647.56 1220.09 1651.21 1209.33 1651.23 1198.26C1651.21 1188.57 1648.36 1179.09 1643.03 1171C1647.43 1171.52 1651.74 1172.72 1655.78 1174.57L1731.78 1208.84Z" fill="#0063DB"/>
<path fill-rule="evenodd" clip-rule="evenodd" d="M1650.61 1198.24C1650.62 1210.33 1646.28 1222.02 1638.39 1231.17C1630.49 1240.32 1619.56 1246.32 1607.6 1248.07C1595.64 1249.83 1583.45 1247.22 1573.26 1240.72C1563.07 1234.22 1555.56 1224.27 1552.1 1212.69C1548.64 1201.11 1549.47 1188.67 1554.44 1177.65C1559.4 1166.63 1568.16 1157.76 1579.12 1152.68C1590.09 1147.59 1602.52 1146.62 1614.14 1149.94C1625.76 1153.26 1635.79 1160.66 1642.41 1170.78C1647.79 1178.92 1650.65 1188.48 1650.61 1198.24Z" fill="#F6B7A7"/>
<path fill-rule="evenodd" clip-rule="evenodd" d="M2145.07 1052.68V1312.72H1731V1052.68C1731 1033.86 1735.76 1015.36 1744.83 998.871C1753.89 982.39 1766.97 968.464 1782.86 958.383C1812.57 973.223 1845.34 980.927 1878.55 980.89H1880.19C1885.8 980.89 1891.42 980.562 1896.91 980.07C1901.46 979.701 1905.97 979.127 1910.44 978.471C1911.88 978.266 1913.27 978.061 1914.54 977.774L1918.97 976.995L1920.36 976.749C1922.41 976.339 1924.46 975.929 1926.39 975.437L1927.83 975.109C1929.63 974.699 1931.39 974.248 1933.16 973.756L1935.04 973.264C1937.25 972.649 1939.47 972.035 1941.68 971.338L1948.82 969.001L1955.29 966.623L1955.87 966.418C1957.96 965.598 1959.97 964.737 1962.1 963.835L1968.25 961.129L1974.27 958.219C1976.28 957.235 1978.37 956.169 1980.22 955.144C1982.06 954.119 1984.32 953.012 1986.08 951.864L1991.78 948.42C1993.67 947.272 1995.51 946.043 1997.36 944.772C1999.2 943.501 2001.05 942.312 2002.85 941H2040.07L2044.17 941.328L2046.47 941.615H2048.27L2052.74 942.271H2053.11L2057.74 943.214H2058.4L2062.87 944.362C2064.43 944.772 2066.03 945.264 2067.62 945.797C2069.22 946.33 2070.86 946.863 2072.42 947.437C2073.98 948.01 2075.62 948.666 2077.22 949.363C2080.21 950.634 2087.26 947.969 2090.17 949.363L2092.47 950.675C2093.37 951.167 2094.23 951.659 2095.13 952.233L2098.9 954.611C2100.18 955.431 2101.24 956.169 2102.35 956.989L2102.96 957.399C2103.91 958.096 2104.85 958.793 2105.71 959.531C2106.37 959.977 2107 960.469 2107.6 961.006C2108.17 961.4 2108.7 961.839 2109.2 962.318C2109.77 962.724 2110.3 963.175 2110.79 963.671C2111.49 964.245 2112.19 964.901 2112.88 965.557L2115.1 967.648L2116.53 969.083L2117.8 970.354L2118.95 971.543C2119.17 971.743 2119.36 971.961 2119.53 972.199C2120.51 973.187 2121.44 974.228 2122.31 975.314C2123.59 976.749 2124.73 978.225 2125.88 979.742L2126.66 980.726C2126.68 980.763 2126.69 980.804 2126.69 980.849C2126.69 980.894 2126.68 980.935 2126.66 980.972L2126.99 981.382L2127.52 982.12C2127.77 982.448 2127.97 982.776 2128.22 983.063V983.35C2128.63 983.924 2129 984.498 2129.37 985.072L2129.65 985.4C2130.6 986.834 2131.58 988.269 2132.44 989.786C2132.93 990.565 2133.42 991.344 2133.83 992.123C2134.24 992.902 2134.7 993.64 2135.11 994.378C2135.27 994.624 2135.4 994.886 2135.52 995.157C2135.67 995.386 2135.79 995.632 2135.88 995.895C2136.46 996.879 2136.95 997.863 2137.44 998.887C2137.73 999.363 2137.97 999.875 2138.14 1000.4C2138.63 1001.39 2139.08 1002.41 2139.53 1003.44C2139.98 1004.46 2140.31 1005.24 2140.68 1006.18C2141.05 1007.13 2141.38 1008.03 2141.75 1008.93L2142.73 1011.76C2143.09 1012.74 2143.42 1013.73 2143.71 1014.71C2143.74 1014.76 2143.74 1014.81 2143.74 1014.86C2143.74 1014.9 2143.74 1014.95 2143.71 1015L2144.08 1016.15C2144.14 1016.61 2144.28 1017.05 2144.49 1017.46V1018.85C2144.53 1019.11 2144.53 1019.37 2144.49 1019.63C2144.61 1019.95 2144.69 1020.28 2144.74 1020.62V1021.03C2145.15 1022.67 2145.48 1024.31 2145.81 1025.99C2145.97 1026.62 2146.09 1027.26 2146.17 1027.91V1028.77C2146.32 1029.49 2146.43 1030.22 2146.5 1030.95C2146.54 1031.16 2146.54 1031.39 2146.5 1031.6C2146.54 1032.03 2146.54 1032.45 2146.5 1032.87C2146.5 1033.87 2146.62 1034.86 2146.87 1035.83V1036.73C2146.91 1037.07 2146.91 1037.41 2146.87 1037.75C2146.91 1038 2146.91 1038.24 2146.87 1038.49V1041.24C2146.91 1041.52 2146.91 1041.81 2146.87 1042.1C2146.91 1042.37 2146.91 1042.65 2146.87 1042.92C2147.68 1043.61 2148.31 1044.48 2148.71 1045.47C2149.11 1046.45 2145.17 1051.62 2145.07 1052.68Z" fill="#0174FF"/>
<path fill-rule="evenodd" clip-rule="evenodd" d="M2179.39 1029.94V1328.97C2179.43 1354.21 2169.78 1378.55 2152.31 1397.29C2149.95 1399.84 2147.46 1402.27 2144.83 1404.56V1399.9L2145.21 1310.73V1047.12C2145.25 1046.84 2145.25 1046.57 2145.21 1046.3C2145.25 1046.01 2145.25 1045.72 2145.21 1045.44C2145.25 1044.32 2145.17 1043.19 2144.96 1042.09V1040.16C2144.99 1039.36 2144.9 1038.56 2144.66 1037.79C2144.7 1037.6 2144.7 1037.41 2144.66 1037.22C2144.7 1036.8 2144.7 1036.37 2144.66 1035.95C2144.7 1035.74 2144.7 1035.51 2144.66 1035.3C2144.7 1035.08 2144.7 1034.86 2144.66 1034.64C2144.62 1034.14 2144.53 1033.63 2144.41 1033.13C2144.34 1032.19 2144.17 1031.26 2143.9 1030.35C2143.56 1028.68 2143.22 1027.04 2142.8 1025.4V1024.99V1024.01C2142.85 1023.76 2142.85 1023.49 2142.8 1023.24V1021.85C2142.72 1021.39 2142.58 1020.96 2142.38 1020.54L2142 1019.39C2142.02 1019.35 2142.03 1019.3 2142.03 1019.25C2142.03 1019.2 2142.02 1019.15 2142 1019.11C2141.69 1018.13 2141.35 1017.15 2140.98 1016.16L2139.97 1013.34C2139.63 1012.44 2139.25 1011.51 2138.87 1010.6C2138.49 1009.71 2138.11 1008.76 2137.69 1007.87C2137.27 1006.97 2136.76 1005.82 2136.25 1004.84C2136.06 1004.32 2135.82 1003.81 2135.54 1003.33C2135.03 1002.31 2134.52 1001.32 2133.93 1000.34C2133.84 1000.08 2133.71 999.834 2133.55 999.609C2133.44 999.334 2133.29 999.076 2133.13 998.83C2132.71 998.096 2132.28 997.317 2131.82 996.583C2131.35 995.845 2130.89 995.029 2130.38 994.251C2129.49 992.738 2128.48 991.307 2127.51 989.876L2127.21 989.548C2127.13 989.347 2127 989.167 2126.83 989.019C2126.61 988.597 2126.34 988.204 2126.03 987.83V987.548C2125.78 987.261 2125.57 986.933 2125.31 986.605L2124.76 985.871L2124.43 985.461L2123.45 984.235C2122.27 982.722 2121.09 981.25 2119.78 979.82C2118.47 978.389 2117.92 977.692 2116.91 976.712C2116.73 976.474 2116.53 976.257 2116.31 976.056L2115.13 974.871L2113.82 973.605L2112.34 972.174C2111.88 971.723 2110.82 970.743 2110.06 970.087C2109.3 969.435 2108.63 968.779 2107.91 968.209C2107.4 967.713 2106.85 967.262 2106.26 966.861C2105.76 966.307 2105.21 965.803 2104.61 965.348C2104 964.811 2103.35 964.319 2102.67 963.876C2101.78 963.138 2100.81 962.445 2099.84 961.748L2099.2 961.338C2098.06 960.522 2096.88 959.744 2095.66 958.969C2094.43 958.19 2093.08 957.333 2091.77 956.595L2089.02 955.041L2086.66 953.733C2083.7 952.208 2080.65 950.843 2077.53 949.646C2075.89 948.953 2074.24 948.338 2072.59 947.723C2070.94 947.112 2069.34 946.58 2067.65 946.092C2065.96 945.6 2064.35 945.067 2062.75 944.657C2061.22 944.21 2059.7 943.841 2058.14 943.513H2057.47C2055.9 943.148 2054.3 942.861 2052.69 942.574H2052.31C2050.79 942.287 2049.27 942.082 2047.71 941.918H2045.93C2045.15 941.762 2044.36 941.664 2043.57 941.635L2039.34 941.307H1999C2000.65 940.163 2002.3 939.016 2003.9 937.831L2008.55 934.313C2010.79 932.6 2012.98 930.841 2015.1 929H2073.65C2101.46 928.967 2128.15 939.544 2147.95 958.444C2167.74 977.344 2179.04 1003.03 2179.39 1029.94Z" fill="#DFB025"/>
<path fill-rule="evenodd" clip-rule="evenodd" d="M1731.33 1178.31H1731V1125.01L1731.33 1124.56C1757.4 1089.63 1757.52 1022.28 1755.11 984.231C1764.48 972.239 1776.22 962.289 1789.58 955H1790.94L1791.22 956.025C1812.42 1103.7 1773.06 1159.12 1731.33 1178.31Z" fill="#FFC828"/>
<path fill-rule="evenodd" clip-rule="evenodd" d="M2061.98 1098.18V1159.39C2023.03 1137.25 1988.92 1080.31 2008.89 941H2032.99C2037.83 941.008 2042.66 941.32 2047.46 941.943C2045.91 953.873 2035.12 1047.06 2061.98 1098.18Z" fill="#FFC828"/>
<path fill-rule="evenodd" clip-rule="evenodd" d="M1965.41 993.222V1002.73C1965.41 1014.32 1960.8 1025.44 1952.61 1033.64C1944.41 1041.83 1933.29 1046.44 1921.7 1046.44C1910.11 1046.44 1898.99 1041.83 1890.8 1033.64C1882.6 1025.44 1878 1014.32 1878 1002.73V993.14C1877.99 988.848 1878.62 984.576 1879.89 980.472C1885.5 980.472 1891.12 980.144 1896.61 979.652C1901.16 979.283 1905.67 978.709 1910.14 978.053C1911.58 977.848 1912.97 977.643 1914.24 977.356L1918.67 976.577L1920.06 976.331C1922.11 975.921 1924.16 975.511 1926.09 975.019L1927.52 974.691C1929.33 974.281 1931.09 973.83 1932.85 973.338L1934.74 972.847C1936.95 972.232 1939.17 971.617 1941.38 970.92L1948.51 968.583L1954.99 966.205L1955.57 966C1961.9 973.662 1965.38 983.284 1965.41 993.222Z" fill="#E1AA9F"/>
<path fill-rule="evenodd" clip-rule="evenodd" d="M2144.85 1053.21V1271.35C2144.89 1271.61 2144.89 1271.87 2144.85 1272.13C2144.93 1273.11 2144.93 1274.1 2144.85 1275.08V1275.86C2144.31 1280.91 2142.93 1285.83 2140.75 1290.41C2137.51 1297.39 2132.27 1303.26 2125.71 1307.28C2119.15 1311.29 2111.55 1313.29 2103.86 1313H2103.4C2094.72 1313.02 2086.25 1310.28 2079.22 1305.17L1948.64 1246.22C1946.33 1245.13 1944.11 1243.86 1942 1242.41C1949.66 1240.36 1956.73 1236.52 1962.62 1231.22C1968.52 1225.92 1973.07 1219.3 1975.92 1211.9C1978.77 1204.5 1979.82 1196.53 1979 1188.64C1978.18 1180.76 1975.5 1173.18 1971.19 1166.52C1975.58 1167.05 1979.87 1168.25 1983.9 1170.09L2061.79 1205.31V1013.81C2061.8 1001.94 2066.48 990.556 2074.83 982.119C2078.95 977.962 2083.86 974.662 2089.26 972.411C2094.66 970.156 2100.46 969 2106.31 969C2118.41 979.446 2128.11 992.372 2134.76 1006.91C2141.41 1021.43 2144.85 1037.23 2144.85 1053.21Z" fill="#0063DB"/>
<path fill-rule="evenodd" clip-rule="evenodd" d="M1979.61 1193.24C1979.62 1205.33 1975.28 1217.02 1967.39 1226.17C1959.49 1235.32 1948.56 1241.32 1936.6 1243.07C1924.64 1244.83 1912.45 1242.22 1902.26 1235.72C1892.07 1229.22 1884.56 1219.27 1881.1 1207.69C1877.64 1196.11 1878.47 1183.67 1883.44 1172.65C1888.4 1161.63 1897.16 1152.76 1908.12 1147.68C1919.09 1142.59 1931.52 1141.62 1943.14 1144.94C1954.76 1148.26 1964.79 1155.66 1971.41 1165.78C1976.77 1173.93 1979.63 1183.48 1979.61 1193.24Z" fill="#F6B7A7"/>
<path d="M2055.07 778.056C2053.55 835.267 2029.42 889.547 1987.96 929.006C1983.37 933.393 1978.61 937.533 1973.65 941.51C1951.09 959.512 1925.15 972.795 1897.36 980.58C1891.86 981.072 1886.25 981.359 1880.63 981.4H1879.11C1842.24 981.42 1805.99 971.909 1773.88 953.797C1741.76 935.684 1714.87 909.578 1695.81 878.014C1676.75 846.451 1666.17 810.497 1665.09 773.64C1664.02 736.784 1672.48 700.273 1689.67 667.651C1688.32 670.767 1687 674.006 1685.77 677.204C1686.02 677.204 1711.56 657.046 1762.4 616.733C1764.9 614.708 1768.1 613.749 1771.3 614.056C1774.5 614.364 1777.46 615.914 1779.53 618.373C1841.52 690.72 1916.59 739.917 2004.73 765.962C2006.22 760.706 2009.56 756.172 2014.14 753.187C2018.71 750.203 2024.21 748.977 2029.62 749.731C2035.03 750.485 2039.99 753.171 2043.57 757.291C2047.16 761.411 2049.13 766.691 2049.13 772.152C2049.13 773.698 2048.96 775.235 2048.64 776.744L2055.07 778.056Z" fill="#FAC6B8"/>
<path d="M1799.86 725C1799.86 733.601 1796.44 741.85 1790.36 747.93C1784.28 754.013 1776.03 757.428 1767.43 757.428C1758.83 757.428 1750.58 754.013 1744.5 747.93C1738.42 741.85 1735 733.601 1735 725H1799.86Z" fill="#B49588"/>
<path d="M2090.67 795.875C2087.15 822.252 2078.69 847.731 2065.74 870.981C2064.68 872.867 2063.57 874.752 2062.46 876.597C2061.36 878.442 2060.25 880.328 2059.06 882.173L2055.78 887.215C2054.67 888.896 2053.94 889.88 2052.95 891.315C2051.97 892.75 2051.52 893.365 2050.78 894.349L2048.28 897.629C2047.05 899.186 2045.82 900.785 2044.51 902.384C2043.81 903.286 2043.11 904.147 2042.37 904.967C2042.14 905.299 2041.88 905.615 2041.6 905.91L2038.6 909.395C2032.41 916.352 2025.77 922.899 2018.72 928.991C2016.67 930.836 2014.62 932.599 2012.36 934.321L2007.86 937.846H2007.65C2006.09 939.035 2004.49 940.183 2002.89 941.331C2001.3 942.479 1999.25 943.873 1997.4 945.103C1995.56 946.333 1993.71 947.604 1991.83 948.752L1986.13 952.195C1984.2 953.343 1982.23 954.409 1980.26 955.475C1978.3 956.541 1976.16 957.566 1974.32 958.55L1968.29 961.461C1966.28 962.404 1964.19 963.305 1962.14 964.166C1960.09 965.027 1958.04 965.929 1955.91 966.749L1955.34 966.954L1948.86 969.332L1941.73 971.669C1939.51 972.366 1937.3 972.981 1935.09 973.596L1933.24 974.293C1931.48 974.785 1929.72 975.236 1927.91 975.645L1926.48 975.973C1924.51 976.465 1922.38 976.875 1920.45 977.285L1919.06 977.531L1914.63 978.31C1913.19 978.597 1911.8 978.802 1910.53 979.007C1906.06 979.663 1901.55 980.237 1897 980.606C1924.72 972.78 1950.59 959.48 1973.09 941.495C1978.05 937.395 1982.81 933.296 1987.4 929.196C2007.99 909.657 2024.52 886.24 2036.04 860.293C2047.56 834.346 2053.83 806.378 2054.51 778C2064.18 779.804 2073.98 781.403 2083.95 782.715C2086.16 787.224 2088.37 791.611 2090.67 795.875Z" fill="#E9B8AE"/>
<path d="M1820.04 708.088C1825.59 708.088 1830.09 703.591 1830.09 698.044C1830.09 692.497 1825.59 688 1820.04 688C1814.5 688 1810 692.497 1810 698.044C1810 703.591 1814.5 708.088 1820.04 708.088Z" fill="#304063"/>
<path d="M1700.04 708.088C1705.59 708.088 1710.09 703.591 1710.09 698.044C1710.09 692.497 1705.59 688 1700.04 688C1694.5 688 1690 692.497 1690 698.044C1690 703.591 1694.5 708.088 1700.04 708.088Z" fill="#304063"/>
<path fill-rule="evenodd" clip-rule="evenodd" d="M2350.64 888.528C2302.1 914.52 2177.96 958.96 2091.54 795.711C2089.24 791.611 2087.03 787.061 2084.82 782.51C2072.52 780.911 2060.63 778.902 2048.86 776.524C2049.19 775.016 2049.35 773.478 2049.35 771.933C2049.35 766.472 2047.38 761.192 2043.8 757.071C2040.21 752.951 2035.26 750.266 2029.85 749.512C2024.44 748.757 2018.94 749.983 2014.36 752.968C2009.79 755.952 2006.45 760.486 2004.95 765.742C1916.78 739.668 1841.72 690.472 1779.76 618.154C1777.69 615.694 1774.73 614.144 1771.53 613.837C1768.32 613.529 1765.13 614.493 1762.62 616.514C1711.79 656.802 1686.25 676.956 1686 676.984C1687.23 673.786 1688.54 670.548 1689.89 667.432C1719.25 598.926 1780.33 549.689 1872.54 553.174H1877.78C1891.26 553.178 1904.73 554.236 1918.04 556.331C2000.86 569.614 2066.08 623.196 2089.49 695.72C2146.02 699.123 2240.6 718.842 2263.81 810.306C2286.27 898.613 2326.29 898.531 2350.64 888.528Z" fill="#304063"/>
<g filter="url(#filter1_d_2_216)">
<path d="M2750.81 1138.49C2747.65 1137.68 2744.3 1138.16 2741.5 1139.82C2738.69 1141.48 2736.66 1144.19 2735.85 1147.35C2735.85 1147.8 2735.64 1148.29 2735.56 1148.78L2731.46 1180.96C2727.56 1208.88 2722.08 1236.56 2715.06 1263.86C2714.27 1267.23 2712.18 1270.14 2709.24 1271.96C2706.3 1273.78 2702.77 1274.36 2699.4 1273.58C2698.09 1273.26 2696.83 1272.75 2695.67 1272.06C2673.2 1258.32 2648.75 1248.1 2623.19 1241.76C2601.68 1236.13 2579.54 1233.25 2557.31 1233.19C2517.72 1232.96 2478.76 1243.11 2444.32 1262.63C2421.07 1276.36 2400.54 1294.23 2383.73 1315.35C2382.72 1316.61 2381.47 1317.67 2380.05 1318.45C2378.64 1319.23 2377.08 1319.72 2375.47 1319.9C2373.87 1320.08 2372.24 1319.94 2370.69 1319.49C2369.13 1319.04 2367.69 1318.29 2366.42 1317.28C2365.34 1316.4 2364.41 1315.35 2363.68 1314.16C2332.64 1266.93 2282.91 1241.23 2218.63 1241.23H2216.34C2208.23 1241.26 2200.13 1241.71 2192.07 1242.58C2187.47 1243.03 2182.92 1243.61 2178.37 1244.3C2150.06 1248.66 2122.79 1258.19 2097.94 1272.43L2096.38 1273.33C2096.15 1271.28 2095.12 1269.4 2093.52 1268.1C2091.91 1266.81 2089.86 1266.2 2087.81 1266.4L2011.93 1274.35L1870.61 1289.2L1867.37 1289.52C1828.29 1259.28 1780.69 1242.07 1731.3 1240.33C1727.57 1240.33 1723.8 1240.08 1720.03 1240.08C1688.84 1240.29 1657.86 1245.24 1628.16 1254.76C1622.5 1256.48 1616.88 1258.37 1611.22 1260.46C1605.57 1262.55 1598.92 1265.13 1593.02 1267.67C1590.52 1268.7 1588.1 1269.8 1585.68 1270.91C1549.36 1286.95 1516.7 1310.25 1489.71 1339.38C1487.2 1342.13 1483.7 1343.77 1479.98 1343.95C1476.26 1344.13 1472.63 1342.82 1469.87 1340.32C1469.42 1339.91 1469.01 1339.46 1468.6 1339.01C1436.41 1300.67 1390.7 1272.88 1331.91 1255.99C1325.23 1254.1 1318.55 1252.38 1311.91 1250.95C1289.87 1245.83 1267.33 1243.18 1244.71 1243.03C1156.2 1243.03 1082.86 1285.05 1037.6 1358.73C1036.73 1360.09 1035.61 1361.27 1034.29 1362.2C1032.97 1363.13 1031.48 1363.79 1029.9 1364.15C1028.32 1364.5 1026.69 1364.54 1025.1 1364.26C1023.51 1363.99 1021.99 1363.4 1020.62 1362.54C1019.23 1361.67 1018.03 1360.53 1017.1 1359.18C1002.66 1337.97 985.732 1318.58 966.672 1301.41C960.441 1295.58 953.882 1290.11 947.035 1285.01C944.411 1283.08 942.661 1280.19 942.169 1276.97C941.677 1273.75 942.484 1270.46 944.411 1267.84L944.657 1267.51L1034.11 1154.4C1057.85 1124.39 1057.85 1124.39 1063.75 1117.79L1099.95 1077.37C1100.99 1076.22 1101.8 1074.87 1102.32 1073.41C1102.85 1071.95 1103.08 1070.4 1103 1068.85C1102.93 1067.3 1102.54 1065.78 1101.88 1064.38C1101.22 1062.98 1100.28 1061.72 1099.13 1060.68C1097.71 1059.42 1096.01 1058.51 1094.17 1058.01L923.913 1012.92L821.667 985.901L815.681 947.815C813.045 932.495 811.389 917.023 810.721 901.489L809.163 864.797C809.024 861.542 807.601 858.475 805.203 856.27C802.804 854.06 799.627 852.895 796.372 853.031C795.909 852.99 795.441 852.99 794.978 853.031L627.998 879.31C624.981 879.793 622.246 881.384 620.336 883.77C618.43 886.16 617.474 889.173 617.667 892.224L619.553 922.028C619.84 930.265 619.266 938.509 617.831 946.626C613.936 939.296 610.907 931.535 608.812 923.504L601.227 894.806C600.444 891.867 598.595 889.321 596.045 887.661C593.491 886.004 590.417 885.349 587.411 885.828L421.088 912.189C417.869 912.702 414.987 914.473 413.077 917.109C411.162 919.745 410.371 923.033 410.879 926.251C410.879 926.661 410.879 927.071 411.125 927.481L420.678 962.533C424.732 977.932 427.975 993.531 430.394 1009.27L443.267 1090.89C443.542 1092.63 443.472 1094.4 443.062 1096.1C442.652 1097.81 441.91 1099.42 440.881 1100.84C439.848 1102.26 438.544 1103.46 437.048 1104.38C435.551 1105.3 433.891 1105.91 432.157 1106.19C430.623 1106.45 429.057 1106.45 427.524 1106.19C407.571 1102.25 387.269 1100.33 366.931 1100.45C339.74 1100.5 312.63 1103.39 286.044 1109.1C209.462 1125.5 148.746 1158.05 110.496 1202.98C69.4994 1251.11 55.2325 1310.8 69.2124 1375.58C84.2582 1445.97 129.601 1500.7 193.802 1525.5C194.787 1525.87 195.632 1526.55 196.22 1527.42C196.807 1528.3 197.108 1529.33 197.082 1530.38C197.055 1531.44 196.7 1532.46 196.069 1533.3C195.437 1534.15 194.559 1534.77 193.556 1535.09L107.462 1562.28C105.438 1562.88 103.554 1563.88 101.92 1565.22C100.285 1566.56 98.9326 1568.2 97.9409 1570.07C96.9492 1571.93 96.3379 1573.98 96.1428 1576.08C95.9472 1578.19 96.1719 1580.31 96.8032 1582.32V1582.77L105.782 1607.37C118.081 1641.36 126.28 1661 139.358 1679.28C162.565 1715.16 196.534 1742.77 236.397 1758.16C263.865 1768.9 298.097 1774.56 335.445 1774.56C365.775 1774.44 396.006 1771.11 425.638 1764.64C492.422 1750.25 555.352 1721.3 590.117 1688.87C591.302 1687.78 592.696 1686.93 594.213 1686.37C595.726 1685.81 597.337 1685.56 598.952 1685.62C600.567 1685.68 602.154 1686.07 603.617 1686.75C605.085 1687.42 606.405 1688.38 607.5 1689.57C607.656 1689.7 607.795 1689.85 607.91 1690.02C643.626 1734.02 693.679 1764.06 749.308 1774.88C763.538 1777.7 778.014 1779.08 792.518 1778.98C833.843 1778.98 878.857 1768.28 922.601 1748.07C952.611 1734.51 980.283 1716.29 1004.59 1694.08C1011.95 1687.13 1021.71 1683.31 1031.83 1683.44C1041.95 1683.57 1051.62 1687.63 1058.79 1694.78C1091.59 1727.57 1134.88 1752.75 1186.87 1767.5C1194.53 1769.72 1202.16 1771.6 1209.66 1773.2C1213.67 1774.06 1217.19 1776.45 1219.49 1779.84C1221.78 1783.25 1222.66 1787.4 1221.96 1791.45L1212.57 1844.5C1211.9 1848.24 1212.74 1852.1 1214.91 1855.23C1217.07 1858.35 1220.39 1860.49 1224.13 1861.18H1225.53L1259.14 1863.97C1265.7 1864.5 1272.26 1865.2 1278.86 1866.06C1282.29 1866.49 1285.4 1868.26 1287.52 1870.98C1289.64 1873.7 1290.6 1877.15 1290.18 1880.57V1881.27L1274.31 1969.33C1271.82 1984.23 1268.4 1998.96 1264.1 2013.44L1253.61 2048.74C1253.17 2050.3 1253.05 2051.92 1253.24 2053.53C1253.43 2055.13 1253.94 2056.68 1254.73 2058.09C1255.52 2059.5 1256.58 2060.74 1257.85 2061.74C1259.12 2062.74 1260.58 2063.48 1262.14 2063.91L1263.04 2064.12L1416.9 2092.32C1418.31 2092.58 1419.76 2092.55 1421.16 2092.24C1422.56 2091.94 1423.88 2091.36 1425.06 2090.54C1426.24 2089.72 1427.24 2088.68 1428.01 2087.47C1428.79 2086.27 1429.31 2084.92 1429.57 2083.51V2082.4C1429.7 2080.54 1430.58 2078.8 1431.99 2077.58C1433.4 2076.36 1435.24 2075.75 1437.11 2075.88C1438.15 2075.97 1439.15 2076.28 1440.06 2076.78C1450.05 2082.2 1460.69 2086.33 1471.71 2089.08C1482.7 2091.92 1494.02 2093.3 1505.37 2093.18C1527.55 2092.88 1549.49 2088.48 1570.06 2080.19C1575.02 2078.22 1579.86 2076.09 1584.53 2073.79C1589.71 2071.2 1595.37 2069.74 1601.15 2069.5C1606.94 2069.27 1612.7 2070.27 1618.07 2072.44C1633.91 2078.72 1650.7 2082.27 1667.72 2082.93C1670.71 2082.93 1673.74 2083.18 1676.74 2083.18C1685.31 2083.19 1693.86 2082.47 1702.32 2081.05C1707.74 2080.2 1713.24 2079.93 1718.72 2080.27L1843.27 2086.99C1845 2087.04 1846.71 2086.53 1848.14 2085.54C1849.57 2084.55 1850.64 2083.14 1851.22 2081.5C1866.4 2087.1 1882.47 2089.96 1898.65 2089.94C1912.9 2089.92 1927.07 2087.89 1940.76 2083.92C1948.23 2081.75 1955.97 2080.64 1963.75 2080.64H2219.53C2225.6 2080.64 2231.63 2081.58 2237.41 2083.43C2251.03 2087.78 2265.25 2089.94 2279.55 2089.82C2298.76 2089.69 2317.84 2086.51 2336.05 2080.39C2340.99 2078.81 2345.83 2077 2350.56 2074.98C2353.41 2073.78 2356.63 2073.76 2359.49 2074.93C2362.36 2076.1 2364.65 2078.36 2365.85 2081.21C2366.3 2082.29 2366.59 2083.42 2366.71 2084.57L2367.37 2090.76C2367.72 2094.28 2369.45 2097.51 2372.18 2099.75C2374.9 2101.99 2378.41 2103.07 2381.92 2102.74C2382.41 2102.74 2382.91 2102.74 2383.4 2102.49L2527.67 2071.66C2531.11 2070.94 2534.13 2068.88 2536.06 2065.94C2537.99 2062.99 2538.67 2059.41 2537.96 2055.96C2537.96 2055.43 2537.71 2054.93 2537.55 2054.44L2526.52 2020.78C2521.8 2006.46 2517.94 1991.86 2514.96 1977.08L2508.72 1947.85C2508.31 1945.87 2508.7 1943.81 2509.81 1942.12C2510.92 1940.43 2512.65 1939.24 2514.63 1938.83C2515.14 1938.77 2515.67 1938.77 2516.19 1938.83C2519.12 1938.83 2522.05 1939.04 2524.96 1939.45L2557.43 1943.83C2561.39 1944.37 2565.41 1943.31 2568.59 1940.89C2571.77 1938.47 2573.86 1934.88 2574.4 1930.92C2574.44 1930.45 2574.44 1929.99 2574.4 1929.52L2580.47 1793.5C2580.62 1790.08 2579.42 1786.74 2577.11 1784.21C2574.8 1781.68 2571.59 1780.17 2568.17 1780.01H2567.84L2535.04 1779.39H2531.4C2518.85 1779.4 2506.34 1780.66 2494.05 1783.17C2482.52 1785.44 2471.32 1789.1 2460.68 1794.07L2396.72 1807.52C2382.36 1810.65 2367.35 1808.57 2354.37 1801.66C2334.46 1791.11 2312.25 1785.64 2289.72 1785.75C2272.35 1785.82 2255.11 1788.67 2238.64 1794.19C2223.26 1799.24 2206.25 1814.69 2189.77 1809.65C2182.03 1806.54 2174.56 1802.77 2167.47 1798.38C2155.39 1792.18 2141.96 1789.11 2128.4 1789.44C2123.14 1789.94 2117.84 1789.8 2112.61 1789.03C2109.99 1788.61 2107.54 1787.47 2105.53 1785.74C2103.52 1784.01 2102.02 1781.76 2101.22 1779.23C2099.62 1772.18 2106.05 1765.58 2112.98 1763.45C2119.91 1761.31 2127.29 1762.26 2134.47 1761.52C2141.64 1760.78 2149.51 1757.67 2152.09 1750.94C2153.36 1746.52 2153.36 1741.83 2152.09 1737.41C2142.88 1688.22 2134.96 1638.86 2128.32 1589.33C2123.97 1556.86 2118.8 1523.74 2123.27 1490.94C2124.06 1481.91 2126.95 1473.19 2131.72 1465.48C2137.83 1456.71 2153.61 1448.3 2163.53 1456.18C2165.58 1457.93 2167.21 1460.14 2168.29 1462.61C2171.03 1469.45 2172.56 1476.73 2172.8 1484.09C2180.3 1567.85 2187.8 1651.53 2188.17 1735.65C2187.88 1739.43 2188.54 1743.22 2190.1 1746.68C2193.71 1753.2 2202.4 1754.51 2209.94 1753.4C2270.29 1744.22 2331.99 1740 2392.83 1733.64C2418.99 1730.7 2445.48 1733.72 2470.31 1742.46C2478.51 1745.41 2486.93 1748.02 2495.56 1750.29C2518.38 1756.56 2541.93 1759.75 2565.59 1759.76C2572.43 1759.76 2579.36 1759.47 2586.09 1758.94L2585.88 1759.67L2800.21 1815.39C2805 1816.61 2810.07 1815.89 2814.32 1813.37C2818.57 1810.86 2821.65 1806.76 2822.88 1801.98C2823.05 1801.38 2823.17 1800.76 2823.25 1800.14L2826.94 1775.54C2832.23 1740.1 2839.65 1705.01 2849.16 1670.47L2933.78 1344.5C2946.57 1295.3 2955.43 1266.61 2965.39 1242.34L2977.69 1211.96C2978.29 1210.44 2978.6 1208.83 2978.57 1207.19C2978.55 1205.56 2978.2 1203.95 2977.55 1202.45C2976.9 1200.96 2975.95 1199.61 2974.77 1198.48C2973.59 1197.35 2972.2 1196.47 2970.68 1195.89C2970.25 1195.7 2969.82 1195.55 2969.36 1195.44L2750.81 1138.49ZM2647.7 1517.55C2643.6 1534.89 2635.4 1553.34 2619.01 1562.03C2596.83 1573.75 2564.11 1564.61 2553.78 1540.83C2540.87 1510.99 2560.71 1445.39 2599.66 1445.39C2628.35 1445.39 2648.36 1464.01 2650 1492.66C2650.37 1501.05 2649.6 1509.45 2647.7 1517.63V1517.55ZM1722.04 1789.19C1716.79 1788.95 1711.54 1788.78 1706.58 1788.78C1671.82 1788.78 1643.98 1795.38 1621.51 1808.95C1620.16 1809.73 1618.85 1810.51 1617.41 1811.33C1613.26 1813.95 1608.43 1815.3 1603.52 1815.23C1598.6 1815.16 1593.82 1813.66 1589.74 1810.92C1579.98 1804.41 1569.39 1799.26 1558.26 1795.59C1558.67 1793.25 1558.87 1790.87 1558.87 1788.5C1558.87 1778.52 1555.12 1768.92 1548.36 1761.58C1541.6 1754.25 1532.33 1749.74 1522.38 1748.93L1516.48 1748.44C1501.43 1747.21 1486.46 1745.16 1471.63 1742.29L1428.21 1734.46C1427.6 1734.34 1427.02 1734.1 1426.5 1733.76C1425.98 1733.42 1425.53 1732.97 1425.18 1732.45C1424.84 1731.94 1424.6 1731.35 1424.48 1730.74C1424.36 1730.13 1424.36 1729.5 1424.48 1728.89C1424.69 1727.88 1425.21 1726.96 1425.96 1726.26C1441.73 1712.08 1455.53 1695.84 1466.96 1677.97C1467.8 1676.7 1468.87 1675.61 1470.14 1674.77C1471.4 1673.92 1472.81 1673.33 1474.31 1673.03C1475.79 1672.74 1477.33 1672.74 1478.82 1673.04C1480.31 1673.33 1481.72 1673.92 1482.99 1674.77C1484.13 1675.53 1485.13 1676.48 1485.94 1677.6C1532.84 1743.69 1602.12 1780.09 1684.4 1780.09C1702.37 1780.05 1720.3 1778.33 1737.94 1774.97C1756.63 1771.4 1774.99 1766.32 1792.84 1759.76C1830.42 1746.47 1865.01 1725.91 1894.63 1699.25C1895.94 1698.04 1897.66 1697.4 1899.43 1697.46C1901.21 1697.52 1902.89 1698.28 1904.1 1699.57C1905.19 1700.77 1905.81 1702.31 1905.87 1703.92C1906.28 1715.52 1906.4 1727.16 1906.28 1738.73L1905.91 1772.14C1905.87 1775.11 1904.72 1777.95 1902.68 1780.11C1900.65 1782.27 1897.88 1783.6 1894.92 1783.82C1874.33 1785.97 1854.33 1791.93 1835.93 1801.41C1829.12 1804.85 1822.51 1808.67 1816.13 1812.85C1814.79 1813.72 1813.23 1814.18 1811.64 1814.18C1810.04 1814.18 1808.48 1813.72 1807.15 1812.85L1806.53 1812.44C1787.06 1799.48 1755.41 1790.87 1722.04 1789.19ZM1278.49 1448.06C1289.77 1451.26 1295.47 1452.85 1293.87 1480.45L1292.23 1508.9C1292.05 1511.94 1293.06 1514.92 1295.05 1517.22C1297.04 1519.52 1299.86 1520.95 1302.89 1521.2L1415.14 1530.87C1419.31 1531.24 1423.24 1532.98 1426.32 1535.82C1429.4 1538.66 1431.45 1542.44 1432.15 1546.57C1434.11 1557.92 1436.71 1569.14 1439.94 1580.19C1440.36 1581.59 1440.37 1583.09 1439.97 1584.5C1439.56 1585.91 1438.76 1587.16 1437.66 1588.13C1436.55 1589.1 1435.2 1589.72 1433.75 1589.94C1432.3 1590.15 1430.82 1589.94 1429.48 1589.33L1298.99 1530.13C1296.91 1529.17 1294.52 1529.06 1292.36 1529.82C1290.19 1530.59 1288.41 1532.17 1287.39 1534.23L1273.66 1562.19C1269.56 1570.64 1268 1572.36 1266.15 1573.96C1262.51 1576.34 1258.21 1577.53 1253.85 1577.36C1250.17 1577.33 1246.52 1576.78 1242.99 1575.72C1221.34 1569.53 1221.18 1533.33 1230.69 1500.25C1234.26 1487.66 1247.66 1446.66 1269.93 1446.66C1272.83 1446.74 1275.71 1447.21 1278.49 1448.06ZM1659.76 1466.92C1661.69 1460.36 1665.71 1452.2 1679.65 1447.12C1683.34 1445.68 1687.25 1444.91 1691.21 1444.82C1707.61 1444.82 1724.7 1464.13 1736.3 1496.35C1759.14 1559.12 1733.89 1568.38 1725.6 1571.42C1721.39 1573.05 1716.92 1573.92 1712.4 1574C1687.81 1574 1671.41 1537.39 1665.83 1521.61C1657.63 1499.67 1655.58 1480.24 1659.56 1466.92H1659.76ZM602.047 1273.78L597.702 1264.56C597.017 1263.07 596.956 1261.37 597.525 1259.83C598.091 1258.29 599.247 1257.05 600.735 1256.36C601.244 1256.12 601.781 1255.96 602.334 1255.87L639.231 1250.08L691.502 1241.89L698.472 1240.78C699.423 1240.61 700.394 1240.64 701.337 1240.86C702.276 1241.07 703.166 1241.47 703.953 1242.03C704.736 1242.59 705.404 1243.3 705.913 1244.12C706.421 1244.94 706.761 1245.85 706.917 1246.8C707.175 1248.19 707.02 1249.61 706.466 1250.9L703.35 1258.65C701.559 1263.02 698.152 1266.53 693.839 1268.45C651.883 1286.99 615.084 1315.49 586.633 1351.47C584.574 1354.13 581.578 1355.9 578.257 1356.43C574.936 1356.95 571.538 1356.19 568.758 1354.3C550.547 1342.13 530.586 1332.81 509.559 1326.67C508.407 1326.3 507.398 1325.58 506.681 1324.6C505.967 1323.62 505.582 1322.44 505.582 1321.23C505.582 1320.03 505.967 1318.84 506.681 1317.87C507.398 1316.89 508.407 1316.17 509.559 1315.8L596.103 1287.39C597.316 1286.99 598.444 1286.36 599.411 1285.52C600.383 1284.69 601.178 1283.67 601.752 1282.53C602.326 1281.39 602.67 1280.14 602.765 1278.86C602.859 1277.59 602.695 1276.31 602.293 1275.09C602.142 1274.66 601.961 1274.24 601.76 1273.82L602.047 1273.78Z" fill="white"/>
</g>
<path d="M2918.75 1224.18L2781 1188.39C2778.89 1187.84 2776.66 1188.15 2774.78 1189.25C2772.9 1190.35 2771.54 1192.15 2770.99 1194.25C2770.99 1194.54 2770.99 1194.82 2770.99 1195.11C2765.52 1229.11 2758.21 1262.79 2749.1 1296L2736.56 1344.46C2736.01 1346.57 2734.65 1348.37 2732.77 1349.46C2730.89 1350.56 2728.66 1350.88 2726.55 1350.33C2724.74 1349.87 2723.14 1348.8 2722.04 1347.29C2714.25 1336.8 2704.8 1327.66 2694.04 1320.23C2670.07 1301.7 2642.49 1288.38 2613.07 1281.12C2559.78 1267.27 2507.3 1273.33 2465.03 1297.52C2417.81 1325.28 2384.56 1374.92 2366.11 1446.05C2364.43 1452.49 2362.99 1458.89 2361.76 1465.2C2350.08 1523.37 2355.53 1575.36 2377.83 1616.89C2383.11 1626.84 2389.39 1636.22 2396.57 1644.89C2420.84 1674.24 2460.69 1698.18 2506.44 1710.07C2532.97 1717.42 2560.63 1719.78 2588.02 1717.04C2602.16 1715.54 2615.94 1711.66 2628.78 1705.56C2630.18 1704.94 2631.74 1704.72 2633.26 1704.94C2634.78 1705.16 2636.21 1705.8 2637.39 1706.79C2638.57 1707.78 2639.44 1709.08 2639.91 1710.55C2640.38 1712.02 2640.43 1713.58 2640.05 1715.07L2638.33 1721.76C2637.79 1723.86 2638.11 1726.09 2639.22 1727.96C2640.33 1729.82 2642.13 1731.18 2644.23 1731.72L2778.04 1766.53C2780.15 1767.06 2782.38 1766.74 2784.25 1765.63C2786.11 1764.52 2787.47 1762.72 2788.01 1760.62C2788.02 1760.36 2788.02 1760.1 2788.01 1759.84C2793.42 1725.77 2800.71 1692.01 2809.86 1658.74L2894.39 1333.56C2902.52 1300.1 2912.51 1267.13 2924.32 1234.8C2924.69 1233.78 2924.86 1232.71 2924.82 1231.63C2924.78 1230.55 2924.52 1229.5 2924.07 1228.52C2923.62 1227.54 2922.97 1226.66 2922.18 1225.93C2921.39 1225.2 2920.45 1224.63 2919.44 1224.26L2918.75 1224.18ZM2687.93 1527.55C2672.27 1587.86 2627.71 1618.32 2575.03 1604.67C2563.82 1602.09 2553.25 1597.3 2543.92 1590.57C2534.6 1583.84 2526.72 1575.3 2520.75 1565.48C2507.92 1544.53 2506.28 1516.98 2514.85 1483.93C2530.96 1422.44 2572.24 1393.74 2624.88 1407.43C2679.73 1421.7 2703.64 1467.29 2687.93 1527.55ZM2388.66 1683.1C2384.07 1661.23 2380.35 1639.16 2377.51 1616.89C2376.19 1606.68 2375.05 1596.39 2374.1 1586.18L2361.56 1465.2L2357.13 1423.09C2347.37 1330.28 2297.64 1281.08 2216.47 1281.57C2209.62 1281.62 2202.78 1282.01 2195.97 1282.76C2190.07 1283.34 2184.21 1284.16 2178.38 1285.26C2167.06 1287.41 2155.95 1290.55 2145.18 1294.65C2141.73 1295.96 2138.37 1297.36 2134.97 1298.75C2129.23 1301.33 2123.61 1304.2 2118.12 1307.28C2115.5 1308.75 2112.99 1310.19 2110.66 1311.62L2110.37 1311.83L2107.87 1313.39C2105.7 1314.78 2103.77 1316.13 2101.64 1317.49L2098.81 1319.54C2097.87 1320.23 2096.92 1320.93 2096.02 1321.67C2095.12 1322.41 2094.18 1323.1 2093.28 1323.88C2092.37 1324.66 2091.59 1325.24 2090.77 1325.97L2087.82 1328.6L2085.12 1331.14L2082.33 1333.84C2080.48 1335.69 2078.56 1337.66 2076.63 1339.83L2076.14 1340.32C2075.4 1341.11 2074.52 1341.75 2073.54 1342.19C2072.55 1342.63 2071.49 1342.88 2070.42 1342.91C2069.34 1342.95 2068.26 1342.77 2067.25 1342.39C2066.25 1342.01 2065.32 1341.43 2064.54 1340.69C2063.1 1339.34 2062.2 1337.53 2061.99 1335.57L2060.15 1317.73C2060 1316.56 2059.6 1315.43 2058.98 1314.43C2058.36 1313.42 2057.53 1312.56 2056.54 1311.91C2055 1310.97 2053.18 1310.57 2051.38 1310.76L2040.43 1311.91H2038.91L1914.2 1324.99C1912.07 1325.25 1910.12 1326.33 1908.78 1328.01C1907.44 1329.69 1906.81 1331.83 1907.03 1333.97V1334.87C1907.4 1336.47 1907.72 1338.11 1908.09 1339.75C1908.46 1341.39 1908.79 1343.03 1909.12 1344.71C1909.45 1346.39 1909.77 1348.03 1910.1 1349.75C1910.43 1351.47 1910.76 1353.15 1911.04 1354.92C1911.99 1360.12 1912.89 1365.54 1913.79 1371.32L1914.65 1377.1V1378.16C1914.9 1379.8 1915.14 1381.44 1915.35 1383.08C1916.62 1392.18 1917.89 1402.02 1919.12 1412.85C1919.12 1414.08 1919.41 1415.26 1919.53 1416.49C1919.86 1419.28 1920.19 1422.15 1920.52 1425.06C1920.76 1427.28 1921.01 1429.57 1921.25 1431.87L1922.2 1440.89L1932.81 1541.9L1941.79 1631.69C1945.77 1664.14 1947.77 1696.81 1947.78 1729.51C1947.78 1731.68 1948.64 1733.76 1950.18 1735.3C1951.72 1736.84 1953.8 1737.7 1955.98 1737.7H1956.84L2098.73 1722.82C2099.8 1722.71 2100.84 1722.39 2101.79 1721.87C2102.73 1721.36 2103.57 1720.66 2104.25 1719.83C2104.92 1718.99 2105.43 1718.03 2105.73 1716.99C2106.04 1715.96 2106.14 1714.87 2106.03 1713.8V1713.11C2099.88 1681.33 2095.08 1650.71 2091.31 1616.07L2078.02 1489.26C2077.89 1488.09 2078.02 1486.9 2078.39 1485.78C2085.61 1464.38 2089.87 1454.91 2098.89 1443.68C2114.1 1424.94 2133.33 1413.67 2154.2 1411.49C2186.83 1408.05 2205.55 1429.17 2210.36 1474.87L2223.73 1601.96C2227.47 1634.45 2229.45 1667.12 2229.67 1699.82C2229.67 1702 2230.54 1704.08 2232.07 1705.62C2233.61 1707.16 2235.7 1708.02 2237.87 1708.02H2238.73L2381.85 1692.98C2382.93 1692.85 2383.96 1692.51 2384.9 1691.98C2385.84 1691.46 2386.67 1690.75 2387.34 1689.9C2388.01 1689.05 2388.5 1688.07 2388.79 1687.03C2389.08 1686 2389.16 1684.9 2389.03 1683.83C2389.04 1683.56 2389.04 1683.29 2389.03 1683.01L2388.66 1683.1ZM1921.58 1441.22C1921.09 1439.66 1920.6 1438.1 1920.06 1436.5C1919.16 1433.88 1918.26 1431.21 1917.28 1428.55C1916.29 1425.88 1914.86 1422.07 1913.59 1418.91C1912.32 1415.76 1910.96 1412.64 1909.49 1409.61C1908.01 1406.57 1906.78 1403.62 1905.39 1400.75C1904.49 1398.87 1903.58 1397.02 1902.6 1395.22L1902.11 1394.32C1901.57 1393.21 1901 1392.1 1900.39 1391.04L1898.58 1387.8L1897.93 1386.61C1896.86 1384.68 1895.75 1382.8 1894.56 1380.91V1380.54C1894.15 1379.8 1893.7 1379.06 1893.21 1378.33C1892.43 1376.97 1891.57 1375.66 1890.71 1374.23C1889.85 1372.79 1888.95 1371.52 1888 1370.13L1887.59 1369.55C1887.06 1368.69 1886.49 1367.87 1885.83 1367.01L1885.54 1366.56C1884.97 1365.74 1884.4 1364.88 1883.74 1364.06L1883.45 1363.73V1363.57C1882.31 1361.96 1881.12 1360.36 1879.89 1358.77L1875.79 1353.48C1875.42 1352.99 1875.01 1352.54 1874.64 1352.09L1872.92 1350.04L1871.2 1348.11L1869.93 1346.68L1868.82 1345.49L1868.49 1345.16L1868.24 1344.87L1867.79 1344.38L1866.77 1343.27C1866.43 1342.86 1866.06 1342.48 1865.66 1342.13C1865.59 1342.01 1865.49 1341.91 1865.37 1341.84L1864.27 1340.69L1861.19 1337.62C1860.74 1337.12 1860.25 1336.67 1859.76 1336.22L1856.56 1333.23L1856.31 1332.98L1854.35 1331.22C1853.4 1330.36 1852.5 1329.54 1851.56 1328.76L1849.63 1327.12L1848.57 1326.22L1847.75 1325.56C1846.88 1324.83 1845.98 1324.13 1845.08 1323.43L1843.36 1322.2L1840.49 1319.99C1839.34 1319.13 1838.19 1318.27 1837 1317.45L1834.3 1315.52L1833.64 1315.07L1831.1 1313.35L1830.4 1312.9C1827.74 1311.09 1825.07 1309.45 1822.2 1307.89L1817.65 1305.31C1814.62 1303.59 1811.55 1302.03 1808.39 1300.56L1803.67 1298.38C1800.52 1296.95 1797.28 1295.59 1794.04 1294.28L1789.45 1292.6H1789.12L1788.38 1292.36L1787.52 1292.07L1784.32 1291L1780.22 1289.73L1778.91 1289.32L1774.2 1288.05L1769.07 1286.78C1767.8 1286.45 1766.53 1286.17 1765.22 1285.92C1764.55 1285.74 1763.86 1285.6 1763.17 1285.51L1758.66 1284.65C1755.13 1283.95 1751.57 1283.42 1748 1283.01L1742.63 1282.39C1739.1 1282.03 1735.5 1281.74 1731.89 1281.62C1730.04 1281.65 1728.2 1281.58 1726.35 1281.41H1715.12C1711.35 1281.41 1707.54 1281.62 1703.72 1281.94C1699.91 1282.27 1696.06 1282.56 1692.16 1283.05H1691.38L1689.42 1283.34C1688.74 1283.38 1688.07 1283.46 1687.41 1283.58L1685.44 1283.87L1682.45 1284.32C1681.43 1284.38 1680.43 1284.55 1679.45 1284.81L1678.02 1285.06C1676.13 1285.39 1674.21 1285.71 1672.28 1286.12L1669 1286.78C1666.91 1287.19 1664.9 1287.68 1662.65 1288.17C1658.66 1289.08 1654.64 1290.1 1650.59 1291.25C1646.49 1292.36 1642.39 1293.59 1638.29 1294.9C1634.19 1296.21 1630.09 1297.6 1625.99 1299L1621.89 1300.6L1620.91 1300.97L1617.34 1302.36L1615.7 1303.02L1611.07 1304.94L1610.13 1305.31L1606.36 1306.95C1604.06 1307.98 1601.81 1309 1599.59 1310.07C1595.08 1312.16 1590.74 1314.17 1586.47 1316.63C1586.01 1316.83 1585.58 1317.08 1585.16 1317.36L1581.06 1319.54L1575.81 1322.57C1574.38 1323.39 1572.99 1324.25 1571.71 1325.11L1569.62 1326.42L1565.85 1328.84C1565.03 1329.34 1564.25 1329.87 1563.47 1330.4C1562.7 1330.93 1561.01 1332.04 1559.78 1332.94H1559.5L1558.47 1333.68H1558.27C1556.37 1334.94 1554.55 1336.3 1552.82 1337.78C1552.24 1338.19 1551.67 1338.6 1551.13 1339.05L1547.03 1342.21L1542.93 1345.45L1542.52 1345.78C1540.72 1347.29 1538.96 1348.81 1537.24 1350.37L1535.92 1351.27C1534.74 1352.33 1533.59 1353.36 1532.48 1354.47L1530.18 1356.68L1527.72 1359.47C1527.03 1360.12 1526.37 1360.82 1525.72 1361.52C1523.95 1363.32 1522.23 1365.13 1520.55 1367.01H1519.73C1518.46 1368.41 1517.23 1369.84 1516 1371.11V1371.32C1514.57 1372.96 1513.21 1374.68 1511.9 1376.4C1510.59 1378.12 1509.89 1378.9 1508.95 1380.21L1508.62 1380.62C1507.35 1382.34 1506.08 1384.07 1504.89 1385.79C1503.33 1387.96 1501.86 1390.13 1500.42 1392.35L1500.09 1392.84C1498.99 1394.56 1497.92 1396.32 1496.85 1398.13C1495.79 1399.93 1494.8 1401.61 1493.9 1403.38C1493.29 1404.4 1492.71 1405.47 1492.18 1406.53C1492.18 1406.9 1491.77 1407.23 1491.61 1407.6C1490.87 1409.03 1490.13 1410.47 1489.43 1411.94C1488.74 1413.42 1488.49 1413.83 1488.08 1414.81C1487.96 1414.99 1487.86 1415.19 1487.79 1415.39L1487.18 1416.66L1486.56 1418.05L1485.09 1421.46C1484.39 1423.1 1483.69 1424.78 1483.08 1426.46C1482.46 1428.14 1481.97 1429.29 1481.48 1430.56C1481.36 1430.76 1481.27 1430.98 1481.23 1431.21C1479.47 1436.05 1477.95 1440.97 1476.64 1445.97C1472.47 1461.46 1470.2 1477.4 1469.88 1493.45C1469.51 1525.48 1475.13 1557.29 1486.48 1587.25C1534.04 1717.29 1647.89 1768.57 1779.73 1720.32C1869.23 1687.52 1923.51 1621.64 1932.98 1541.66C1936.45 1507.71 1932.7 1473.4 1921.95 1441.01L1921.58 1441.22ZM1739.72 1609.55C1692.29 1626.89 1650.8 1599.46 1627.35 1535.34C1604.55 1473.07 1618.57 1425.35 1665.35 1408.25C1710.98 1391.53 1751.9 1419.24 1774.85 1482.05C1798.59 1546.91 1786 1592.74 1739.84 1609.55H1739.72ZM1479.02 1480.94C1479.02 1477.83 1478.77 1474.87 1478.61 1472L1478.36 1467.9V1466.39C1478.43 1465.01 1478.32 1463.64 1478.04 1462.29C1477.8 1460.93 1477.65 1459.56 1477.59 1458.19C1477.59 1456.88 1477.3 1455.48 1477.14 1454.09C1476.97 1452.69 1476.81 1451.55 1476.6 1450.32C1476.4 1449.09 1476.23 1447.82 1476.03 1446.63C1473.77 1433.92 1470 1421.54 1464.79 1409.73C1440.48 1353.69 1392.03 1315.44 1320.69 1294.94L1317.7 1294.12C1186.51 1258.12 1080.2 1317.65 1043.02 1448.64C1037.5 1467.69 1033.96 1487.27 1032.48 1507.06C1030.98 1526.43 1031.98 1545.91 1035.48 1565.03C1049.87 1642.92 1106.81 1702 1198.23 1727.99C1270.18 1748.49 1332.99 1741.07 1383.62 1707.04C1404.82 1692.28 1417.57 1678.63 1437.74 1648C1438.93 1646.19 1439.36 1643.97 1438.92 1641.84C1438.48 1639.71 1437.22 1637.84 1435.4 1636.65C1435.04 1636.4 1434.65 1636.2 1434.25 1636.03L1317.66 1583.15C1315.78 1582.31 1313.65 1582.2 1311.7 1582.85C1309.75 1583.51 1308.11 1584.87 1307.12 1586.67C1303.35 1594.1 1298.05 1600.65 1291.58 1605.9C1275.92 1617.83 1254.69 1621.27 1231.77 1614.84C1188.85 1602.54 1172.9 1553.05 1191.18 1488.69C1209.47 1424.32 1244.85 1395.46 1289.94 1408.17C1321.96 1417.23 1335.78 1437.36 1335.37 1474.75C1335.36 1476.8 1336.12 1478.79 1337.5 1480.3C1338.89 1481.82 1340.78 1482.77 1342.83 1482.95L1469.26 1493.86H1470.33C1472.49 1494.05 1474.65 1493.38 1476.31 1491.99C1477.98 1490.59 1479.03 1488.6 1479.23 1486.44C1479.25 1486.18 1479.25 1485.91 1479.23 1485.66C1479.23 1484.26 1479.23 1482.66 1479.23 1481.11L1479.02 1480.94ZM1032.48 1507.06C1031.76 1506.97 1031.03 1506.97 1030.31 1507.06L907.321 1528.42C905.394 1528.75 903.652 1529.76 902.405 1531.26C901.159 1532.76 900.487 1534.66 900.516 1536.62C901.717 1547.28 899.597 1558.06 894.448 1567.49C887.192 1583.11 871.244 1597 850.991 1606.35C828.361 1616.8 807.781 1617.67 789.004 1608.28C777.292 1602.74 767.354 1594.06 760.307 1583.19C759.667 1582.32 759.204 1581.33 758.95 1580.28C758.691 1579.24 758.642 1578.15 758.806 1577.08C758.97 1576.02 759.343 1574.99 759.901 1574.07C760.462 1573.15 761.2 1572.34 762.069 1571.71C762.504 1571.39 762.971 1571.11 763.463 1570.89L1014.65 1454.83C1015.64 1454.38 1016.53 1453.75 1017.27 1452.96C1018.02 1452.17 1018.59 1451.24 1018.98 1450.23C1019.36 1449.21 1019.53 1448.14 1019.49 1447.05C1019.46 1445.97 1019.2 1444.91 1018.75 1443.92V1443.55C1017.36 1440.93 1015.55 1437.4 1011.9 1430.23C989.151 1385.83 969.144 1358.2 939.134 1330.85C918.628 1311.54 893.87 1297.31 866.857 1289.32C830.948 1279.13 792.94 1278.89 756.904 1288.63C741.12 1292.64 725.746 1298.14 710.987 1305.02C648.385 1333.97 606.528 1379.39 588.243 1433.34C570.902 1484.39 574.755 1543.09 602.182 1602.7L602.428 1603.28C635.758 1675.35 690.407 1721.63 757.847 1734.47C801.016 1743.4 854.107 1734.75 905.968 1710.81C966.725 1682.69 1008.79 1640.79 1028.3 1589.13C1031.41 1581.3 1033.92 1573.24 1035.8 1565.03C1038.95 1548.63 1040.31 1531.95 1039.86 1515.26C1039.88 1513.21 1039.12 1511.25 1037.76 1509.73C1036.4 1508.21 1034.51 1507.26 1032.48 1507.06ZM727.386 1486.85C726.402 1487.3 725.336 1487.55 724.254 1487.59C723.172 1487.63 722.094 1487.45 721.081 1487.07C720.064 1486.69 719.138 1486.11 718.346 1485.37C717.559 1484.63 716.924 1483.73 716.481 1482.75C716.042 1481.8 715.776 1480.79 715.702 1479.75C715.325 1473.19 715.874 1466.6 717.342 1460.2C722.672 1438.92 737.84 1421.74 760.471 1411.29C792.366 1396.65 820.203 1400.38 841.029 1422.07C841.775 1422.85 842.362 1423.76 842.755 1424.77C843.145 1425.77 843.333 1426.85 843.313 1427.92C843.288 1429 843.054 1430.06 842.62 1431.05C842.185 1432.04 841.562 1432.93 840.783 1433.67C840.123 1434.3 839.361 1434.81 838.528 1435.19L727.386 1486.85ZM610.258 1492.87C606.077 1471.98 598.533 1451.9 587.915 1433.43C556.881 1380.79 500.756 1355.16 417.205 1353.85C336.769 1354.43 316.558 1353.85 304.956 1353.24C284.457 1351.6 271.748 1342.25 268.386 1326.88C263.262 1303.14 283.063 1282.76 317.05 1275.42C338.86 1270.71 358.374 1273.91 371.124 1283.25C378.291 1288.8 383.805 1296.2 387.072 1304.66C387.908 1306.49 389.392 1307.95 391.237 1308.75C393.082 1309.57 395.161 1309.67 397.075 1309.04L540.933 1261.77C541.962 1261.44 542.913 1260.9 543.733 1260.2C544.553 1259.5 545.225 1258.64 545.713 1257.68C546.201 1256.71 546.492 1255.66 546.574 1254.59C546.652 1253.51 546.521 1252.43 546.181 1251.4C546.049 1251.05 545.898 1250.71 545.73 1250.38C541.072 1240.34 535.8 1230.61 529.946 1221.23C526.9 1216.46 523.558 1211.89 519.943 1207.53C515.183 1201.5 510.005 1195.8 504.446 1190.48C486.579 1173.18 465.122 1160.02 441.598 1151.94C403.84 1138.58 347.305 1137.39 294.583 1148.74C156.67 1178.59 86.4428 1260.58 109.237 1366.52C121.536 1424.24 157.08 1466.96 208.326 1486.8C235.384 1497.09 253.915 1499.1 323.814 1499.51C377.11 1500.17 404.824 1501.52 416.098 1503.61C423.998 1504.86 431.308 1508.57 436.982 1514.2C442.655 1519.84 446.407 1527.12 447.706 1535.02C453.897 1563.71 433.726 1585.69 393.386 1594.42C365.795 1600.32 340.746 1596.31 323.691 1582.53C313.682 1574.49 306.138 1563.79 301.922 1551.66C301.142 1549.75 299.671 1548.2 297.802 1547.33C295.933 1546.45 293.803 1546.32 291.837 1546.95L152.817 1590.77C150.746 1591.43 149.022 1592.88 148.023 1594.81C147.023 1596.75 146.831 1598.99 147.487 1601.06V1601.47C157.326 1628.08 163.886 1643.04 173.52 1656.28C191.979 1685.33 219.288 1707.66 251.414 1719.99C293.23 1736.39 354.644 1738.03 416.877 1724.59C476.527 1711.75 532.816 1686.21 561.841 1658.99C578.818 1643.19 592.343 1624.06 601.567 1602.78C615.711 1569.99 618.745 1532.84 610.135 1492.83L610.258 1492.87Z" fill="#985DEC"/>
<path d="M2528.69 1824.75C2520.06 1824.9 2511.45 1825.86 2502.99 1827.62C2483.02 1831.72 2469.66 1838.81 2460.93 1849.84C2457.69 1853.32 2454.93 1857.22 2452.73 1861.44C2452.08 1862.61 2450.99 1863.47 2449.71 1863.84C2448.43 1864.21 2447.05 1864.05 2445.88 1863.41C2445.25 1863.05 2444.7 1862.57 2444.27 1861.99C2443.84 1861.41 2443.54 1860.75 2443.38 1860.04L2441.17 1849.71C2440.94 1848.4 2440.19 1847.23 2439.1 1846.46C2438.01 1845.69 2436.66 1845.39 2435.34 1845.61L2373.19 1858.9C2372.55 1859.03 2371.94 1859.29 2371.4 1859.67C2370.86 1860.04 2370.4 1860.52 2370.04 1861.07C2369.69 1861.62 2369.45 1862.24 2369.34 1862.89C2369.22 1863.54 2369.24 1864.2 2369.38 1864.84V1865.37C2371.72 1872.51 2373.81 1879.76 2375.69 1887.06C2377.58 1894.36 2379.14 1901.53 2380.53 1908.83L2383.97 1924.86L2389.18 1949.46L2393.28 1967.74L2400.5 2001.44C2403.9 2016.04 2406.45 2030.82 2408.12 2045.72C2408.19 2046.37 2408.38 2047 2408.69 2047.57C2409 2048.15 2409.43 2048.65 2409.93 2049.06C2410.44 2049.47 2411.02 2049.78 2411.64 2049.97C2412.27 2050.15 2412.93 2050.22 2413.57 2050.15H2414.15L2478.27 2036.45C2479.56 2036.18 2480.69 2035.4 2481.41 2034.3C2482.13 2033.19 2482.39 2031.84 2482.12 2030.55C2482.15 2030.37 2482.15 2030.19 2482.12 2030.02C2477.51 2015.9 2473.65 2001.54 2470.56 1987.01L2461.25 1943.19C2455.97 1918.59 2467.03 1902.19 2493.35 1896.49C2503.86 1894.29 2514.64 1893.65 2525.33 1894.56C2526 1894.63 2526.68 1894.57 2527.32 1894.37C2527.97 1894.18 2528.57 1893.86 2529.09 1893.43C2529.62 1893.01 2530.05 1892.48 2530.37 1891.89C2530.69 1891.29 2530.88 1890.64 2530.95 1889.97L2533.57 1830.36C2533.67 1829.03 2533.24 1827.71 2532.38 1826.7C2531.51 1825.68 2530.27 1825.06 2528.94 1824.95L2528.69 1824.75ZM2389.96 1949.58H2389.26L2333.79 1952.66C2332.58 1952.75 2331.44 1953.27 2330.58 1954.13C2329.72 1954.98 2329.18 1956.12 2329.08 1957.33C2328.67 1962.01 2327.07 1966.51 2324.45 1970.41C2319 1978.11 2311.07 1983.7 2301.98 1986.23C2297.28 1988.13 2292.19 1988.89 2287.13 1988.45C2282.07 1988.02 2277.19 1986.4 2272.87 1983.73C2268.15 1980.82 2264.28 1976.72 2261.64 1971.84C2260.95 1970.69 2260.75 1969.3 2261.08 1967.99C2261.41 1966.69 2262.25 1965.56 2263.4 1964.87C2263.71 1964.69 2264.05 1964.54 2264.39 1964.42L2384.06 1925.02L2385.82 1924.45C2387.08 1924.04 2388.13 1923.14 2388.74 1921.96C2389.35 1920.78 2389.46 1919.4 2389.06 1918.14V1917.85C2388.61 1916.66 2387.99 1915.02 2386.97 1912.4C2380.77 1893.86 2371.02 1876.7 2358.27 1861.89C2333.67 1832.86 2294.31 1823.64 2252.91 1837.29C2221.3 1847.62 2198.96 1867.22 2187.68 1892.27C2177.43 1914.98 2176.33 1942.16 2185.8 1970.9C2186.74 1973.81 2187.76 1976.68 2188.91 1979.43C2201.21 2010.42 2223.02 2031.94 2251.39 2040.92C2271.11 2047.44 2296.49 2046.29 2322.03 2037.93C2352 2028.13 2374.01 2010.79 2385.94 1987.67C2389.35 1981.44 2391.83 1974.76 2393.32 1967.82C2394.14 1964.14 2394.8 1960.04 2395.41 1955.16C2395.48 1954.49 2395.42 1953.82 2395.22 1953.18C2395.04 1952.54 2394.72 1951.94 2394.29 1951.43C2393.87 1950.91 2393.35 1950.48 2392.76 1950.16C2392.17 1949.84 2391.53 1949.65 2390.86 1949.58H2389.96ZM2245.9 1917.32C2246.23 1914.96 2246.79 1912.64 2247.58 1910.39C2249.58 1905.46 2252.69 1901.05 2256.65 1897.49C2260.61 1893.94 2265.33 1891.34 2270.45 1889.89C2285.42 1885.01 2297.76 1887.76 2306.29 1897.76C2307.17 1898.78 2307.61 1900.1 2307.53 1901.44C2307.45 1902.78 2306.84 1904.04 2305.84 1904.94C2305.31 1905.39 2304.7 1905.74 2304.03 1905.96L2252.54 1922.85C2251.72 1923.13 2250.84 1923.18 2249.99 1923.02C2249.14 1922.86 2248.34 1922.49 2247.68 1921.93C2247.01 1921.38 2246.5 1920.67 2246.19 1919.85C2245.88 1919.05 2245.78 1918.17 2245.9 1917.32ZM2190.84 2030.47C2189.08 2015.6 2188.38 2000.63 2188.75 1985.66V1908.3C2188.75 1903 2188.38 1897.72 2187.64 1892.47C2182.39 1855.12 2158.94 1834.54 2120.37 1834.54C2107.52 1834.55 2094.8 1837.09 2082.94 1842.01C2075.74 1845.21 2069 1849.34 2062.89 1854.3C2062.38 1854.73 2061.8 1855.04 2061.17 1855.24C2060.54 1855.43 2059.88 1855.5 2059.23 1855.44C2058.57 1855.38 2057.94 1855.19 2057.35 1854.88C2056.77 1854.58 2056.25 1854.16 2055.84 1853.65C2055.05 1852.68 2054.64 1851.46 2054.69 1850.21V1822.33C2054.36 1807.35 2054.98 1792.37 2056.53 1777.48C2056.69 1776.16 2056.31 1774.84 2055.48 1773.8C2054.66 1772.77 2053.46 1772.1 2052.15 1771.94H1986.8C1986.14 1771.94 1985.49 1772.07 1984.88 1772.32C1984.28 1772.57 1983.73 1772.94 1983.26 1773.41C1982.8 1773.87 1982.43 1774.42 1982.18 1775.03C1981.93 1775.64 1981.8 1776.29 1981.8 1776.94C1981.8 1777.15 1981.8 1777.31 1981.8 1777.52C1983.35 1792.42 1983.97 1807.39 1983.64 1822.37V1985.62C1983.64 1993.82 1983.64 2002.02 1983.15 2009.85C1982.86 2016.78 1982.37 2023.66 1981.76 2030.55C1981.69 2031.21 1981.76 2031.87 1981.96 2032.49C1982.15 2033.12 1982.46 2033.7 1982.88 2034.21C1983.3 2034.72 1983.81 2035.14 1984.4 2035.44C1984.98 2035.75 1985.61 2035.94 1986.27 2036H2051.49C2052.82 2035.99 2054.09 2035.46 2055.03 2034.51C2055.97 2033.57 2056.49 2032.29 2056.49 2030.96C2056.51 2030.78 2056.51 2030.6 2056.49 2030.43C2054.89 2015.53 2054.16 2000.56 2054.32 1985.58V1927.48C2054.31 1926.89 2054.41 1926.29 2054.61 1925.72C2057.26 1918.1 2061.34 1911.04 2066.62 1904.94C2070.11 1901.19 2074.32 1898.2 2079 1896.13C2083.68 1894.06 2088.72 1892.95 2093.84 1892.88C2109.62 1892.88 2117.05 1903.34 2117.05 1925.68V1985.66C2117.3 2000.71 2116.67 2015.77 2115.16 2030.75C2115.06 2032.09 2115.49 2033.41 2116.36 2034.43C2117.22 2035.46 2118.46 2036.09 2119.79 2036.21H2186.04C2187.38 2036.15 2188.64 2035.58 2189.55 2034.6C2190.46 2033.63 2190.95 2032.34 2190.92 2031C2190.92 2030.8 2190.92 2030.59 2190.92 2030.39L2190.84 2030.47ZM2009.59 1929.25C2009.51 1928.6 2009.29 1927.97 2008.97 1927.4C2008.64 1926.83 2008.2 1926.33 2007.68 1925.93C2007.16 1925.53 2006.56 1925.24 2005.92 1925.07C2005.29 1924.9 2004.63 1924.86 2003.98 1924.94L2003.07 1925.15L1983.89 1931.38L1948.22 1942.94C1947.03 1943.34 1946.04 1944.16 1945.42 1945.25C1944.81 1946.34 1944.62 1947.62 1944.9 1948.84C1946.34 1955.51 1945.37 1962.47 1942.14 1968.48C1938.92 1974.49 1933.66 1979.16 1927.31 1981.64C1908.49 1991.07 1887.22 1978.89 1873.07 1950.65C1858.93 1922.4 1862.17 1901.12 1881.81 1891.32C1895.58 1884.44 1906.4 1886.73 1918.09 1899.52C1918.95 1900.44 1920.11 1901 1921.36 1901.11C1922.61 1901.21 1923.85 1900.85 1924.85 1900.1L1970.85 1864.76C1971.38 1864.35 1971.82 1863.85 1972.15 1863.27C1972.48 1862.7 1972.69 1862.06 1972.78 1861.4C1972.86 1860.74 1972.81 1860.07 1972.64 1859.43C1972.46 1858.79 1972.16 1858.19 1971.75 1857.67L1971.38 1857.26C1963.59 1848.29 1953.92 1841.13 1943.05 1836.31C1916.82 1824.58 1887.75 1826.63 1856.51 1842.25C1835.75 1851.93 1818.39 1867.65 1806.7 1887.35C1792.39 1912.89 1791.37 1943.68 1804.94 1975.7C1806.08 1978.48 1807.4 1981.27 1808.79 1983.9C1837.49 2041.7 1893.28 2060.93 1951.62 2031.74C1963.31 2026.04 1974.08 2018.62 1983.56 2009.72C1996.3 1997.82 2005.3 1982.46 2009.47 1965.53C2012.05 1953.55 2012.05 1941.15 2009.47 1929.16L2009.59 1929.25ZM1806.41 1887.18C1805.03 1879.71 1802.16 1872.6 1797.97 1866.26C1793.78 1859.92 1788.35 1854.49 1782.02 1850.29C1769.43 1842.09 1745.12 1835.73 1719.66 1834.46C1686.62 1832.78 1662.27 1837.13 1644.35 1847.99C1630.25 1856.19 1622.95 1864.39 1615.41 1881.49C1614.88 1882.73 1614.85 1884.14 1615.35 1885.4C1615.85 1886.66 1616.83 1887.67 1618.07 1888.21C1618.37 1888.36 1618.69 1888.47 1619.02 1888.54L1678.71 1900.84C1679.79 1901.07 1680.92 1900.94 1681.92 1900.46C1682.91 1899.98 1683.72 1899.17 1684.2 1898.17C1690.1 1885.87 1698.63 1881.24 1713.68 1882.18C1730.08 1883.21 1738.28 1890.38 1737.46 1902.27V1905.51C1737.38 1906.82 1736.8 1908.06 1735.84 1908.95C1734.88 1909.84 1733.61 1910.33 1732.29 1910.31C1708.55 1909.77 1687.19 1909.9 1676.53 1910.76C1660.17 1911.91 1644.12 1915.88 1629.1 1922.48L1628.61 1922.73C1617.67 1927.94 1608.95 1936.88 1604.01 1947.94C1601.03 1955.04 1599.36 1962.63 1599.09 1970.33C1598.24 1981.19 1600.1 1992.09 1604.5 2002.06C1608.27 2010.01 1613.78 2017.02 1620.61 2022.56C1631.89 2031.78 1649.56 2037.36 1670.59 2038.42C1684.98 2039.25 1699.39 2037.27 1713.02 2032.6L1713.6 2032.35C1717.04 2030.89 1720.3 2029.03 1723.31 2026.82C1724.08 2026.2 1725.02 2025.81 1726 2025.72C1726.99 2025.62 1727.97 2025.82 1728.85 2026.28C1729.72 2026.75 1730.44 2027.45 1730.91 2028.32C1731.39 2029.19 1731.6 2030.18 1731.51 2031.16C1731.45 2032.49 1731.9 2033.79 1732.78 2034.78C1733.67 2035.76 1734.9 2036.37 1736.23 2036.45L1798.58 2039.61C1799.24 2039.64 1799.9 2039.54 1800.52 2039.32C1801.14 2039.11 1801.71 2038.76 1802.19 2038.32C1802.68 2037.88 1803.08 2037.35 1803.36 2036.75C1803.64 2036.15 1803.8 2035.51 1803.83 2034.85V2034.36C1803.3 2020.52 1803.46 2006.66 1804.32 1992.83L1805.18 1975.33L1808.38 1909.16C1808.64 1901.78 1807.98 1894.4 1806.41 1887.18ZM1734.34 1964.71C1733.52 1981.11 1714.58 1994.35 1693.34 1993.41C1679.16 1992.67 1670.84 1985.49 1671.45 1974.02C1671.94 1963.52 1679.04 1957.62 1695.6 1954.5C1706.79 1952.66 1718.14 1952.04 1729.46 1952.66C1730.13 1952.66 1730.79 1952.8 1731.41 1953.06C1732.02 1953.33 1732.58 1953.71 1733.04 1954.19C1733.51 1954.67 1733.88 1955.24 1734.12 1955.86C1734.36 1956.49 1734.48 1957.15 1734.46 1957.82L1734.34 1964.71ZM1616.23 1946.71L1603.64 1948.15L1560.43 1953.11C1559.23 1953.26 1558.12 1953.84 1557.31 1954.75C1556.5 1955.65 1556.03 1956.81 1556 1958.03C1555.84 1962.72 1554.52 1967.3 1552.15 1971.35C1547.16 1979.36 1539.56 1985.4 1530.63 1988.45C1526.04 1990.63 1521 1991.7 1515.93 1991.57C1510.85 1991.44 1505.87 1990.12 1501.4 1987.71C1496.51 1985.04 1492.41 1981.14 1489.51 1976.39C1488.76 1975.27 1488.48 1973.9 1488.74 1972.58C1489.01 1971.26 1489.78 1970.09 1490.9 1969.34C1491.18 1969.14 1491.48 1968.97 1491.8 1968.85L1610.69 1921.99C1611.31 1921.75 1611.87 1921.4 1612.35 1920.95C1612.83 1920.49 1613.21 1919.95 1613.47 1919.35C1613.74 1918.75 1613.89 1918.1 1613.9 1917.44C1613.92 1916.78 1613.8 1916.13 1613.56 1915.51V1915.27L1611.19 1909.9C1603.98 1891.73 1593.27 1875.17 1579.66 1861.15C1570.24 1851.33 1558.68 1843.83 1545.87 1839.24C1533.07 1834.64 1519.38 1833.08 1505.87 1834.67C1494.61 1835.76 1483.57 1838.46 1473.07 1842.66C1466.41 1845.31 1459.97 1848.5 1453.84 1852.21C1440.09 1859.83 1428.45 1870.75 1419.99 1883.99C1411.52 1897.24 1406.48 1912.38 1405.34 1928.06C1404.24 1945.81 1407.18 1963.59 1413.95 1980.04C1427.64 2014.81 1452.08 2038.09 1483.64 2046.05C1503.73 2051.42 1528.74 2048.79 1553.95 2038.95C1573.93 2031.67 1591.48 2018.98 1604.67 2002.3C1608.71 1996.95 1612.13 1991.16 1614.88 1985.04C1619.54 1974.72 1622.09 1963.57 1622.38 1952.25C1622.48 1951.57 1622.44 1950.88 1622.25 1950.21C1622.07 1949.55 1621.76 1948.93 1621.34 1948.4C1620.91 1947.86 1620.38 1947.42 1619.78 1947.09C1619.18 1946.76 1618.51 1946.57 1617.83 1946.51C1617.42 1946.45 1617.01 1946.45 1616.6 1946.51L1616.23 1946.71ZM1477.41 1927.93C1476.16 1928.42 1474.76 1928.39 1473.53 1927.85C1472.29 1927.32 1471.32 1926.32 1470.81 1925.07C1470.56 1924.38 1470.45 1923.66 1470.48 1922.93C1470.65 1920.55 1471.06 1918.18 1471.71 1915.88C1473.42 1910.83 1476.27 1906.24 1480.03 1902.46C1483.79 1898.68 1488.36 1895.81 1493.4 1894.07C1508.04 1888.25 1520.5 1890.3 1529.6 1899.81C1530.07 1900.29 1530.43 1900.86 1530.66 1901.49C1530.91 1902.11 1531.02 1902.78 1531 1903.44C1530.98 1904.11 1530.83 1904.76 1530.55 1905.37C1530.28 1905.98 1529.89 1906.53 1529.4 1906.99C1528.95 1907.42 1528.42 1907.77 1527.84 1908.01L1477.41 1927.93ZM1507.42 1793.3C1492.75 1791.91 1478.16 1789.83 1463.68 1787.07L1322.94 1761.53C1308.67 1759.02 1294.54 1755.9 1280.55 1752.18C1279.28 1751.83 1277.93 1751.99 1276.78 1752.64C1275.64 1753.28 1274.79 1754.36 1274.44 1755.63V1756.28L1264.07 1814.54C1263.85 1815.85 1264.16 1817.2 1264.93 1818.28C1265.69 1819.38 1266.86 1820.12 1268.17 1820.36H1268.53C1283.21 1821.75 1297.79 1823.83 1312.28 1826.59L1340.12 1831.59C1340.77 1831.71 1341.4 1831.95 1341.96 1832.31C1342.52 1832.66 1343.01 1833.13 1343.39 1833.67C1343.77 1834.22 1344.03 1834.83 1344.18 1835.48C1344.32 1836.13 1344.33 1836.8 1344.21 1837.46L1318.92 1977.66C1316.41 1992.54 1313.1 2007.26 1309 2021.78C1308.65 2023.06 1308.81 2024.44 1309.46 2025.61C1310.11 2026.77 1311.2 2027.64 1312.48 2028.01H1313.1L1382.18 2040.31C1382.83 2040.43 1383.5 2040.41 1384.15 2040.27C1384.8 2040.13 1385.42 2039.86 1385.96 2039.47C1386.51 2039.1 1386.97 2038.61 1387.33 2038.05C1387.68 2037.49 1387.93 2036.86 1388.04 2036.21C1388.04 2036.21 1388.04 2035.92 1388.04 2035.76C1389.31 2020.72 1391.36 2005.77 1394.19 1990.95L1405.42 1927.77L1408.83 1908.63L1419.12 1850.78C1419.35 1849.46 1420.09 1848.29 1421.18 1847.53C1422.27 1846.76 1423.62 1846.45 1424.94 1846.68L1452.16 1851.64L1453.84 1851.93C1467.86 1854.3 1481.76 1857.42 1495.49 1861.11C1496.77 1861.46 1498.14 1861.29 1499.29 1860.64C1500.44 1859.99 1501.29 1858.9 1501.64 1857.63V1857.01L1505.74 1834.3L1512.18 1798.8C1512.26 1798.14 1512.22 1797.48 1512.05 1796.85C1511.88 1796.21 1511.59 1795.62 1511.19 1795.09C1510.79 1794.57 1510.29 1794.13 1509.72 1793.81C1509.15 1793.48 1508.53 1793.26 1507.87 1793.18H1507.3L1507.42 1793.3Z" fill="#39C9A7"/>
<path d="M1017.47 1084.58L955.277 1068.18C953.485 1067.7 951.583 1067.85 949.886 1068.6C948.188 1069.34 946.794 1070.64 945.929 1072.28C939.005 1084.61 931.138 1096.38 922.397 1107.5L882.589 1162.35L876.686 1095.89C875.079 1081.8 874.275 1067.61 874.267 1053.42C874.329 1051.56 873.759 1049.74 872.648 1048.25C871.537 1046.76 869.954 1045.69 868.159 1045.22L806.663 1028.82C804.56 1028.27 802.322 1028.59 800.448 1029.68C798.571 1030.78 797.21 1032.58 796.66 1034.69C796.435 1035.81 796.435 1036.97 796.66 1038.09C797.808 1044.94 799.202 1054.49 802.154 1074.7L825.071 1225.89L818.019 1233.48C810.476 1241.68 800.76 1244.02 788.174 1240.69C781.114 1238.72 774.567 1235.24 768.987 1230.49C768.167 1229.77 767.097 1229.42 766.011 1229.49C764.929 1229.57 763.92 1230.08 763.207 1230.9C762.916 1231.22 762.682 1231.6 762.51 1232L745.004 1275.38C744.229 1277.32 744.221 1279.47 744.984 1281.42C745.746 1283.36 747.218 1284.94 749.104 1285.83C751.605 1287.06 754.106 1288.21 756.606 1289.36C767.487 1294.24 778.728 1298.28 790.224 1301.45C821.34 1309.65 846.266 1306.08 866.56 1290.05C872.373 1285.46 877.604 1280.17 882.138 1274.31L998.897 1126.72C1011.93 1110.32 1018.04 1102.49 1021.94 1097.7C1023.3 1096.01 1023.95 1093.85 1023.72 1091.69C1023.5 1089.53 1022.43 1087.55 1020.75 1086.18C1019.8 1085.39 1018.67 1084.84 1017.47 1084.58ZM806.376 1168.99C802.76 1155.03 800.022 1140.86 798.177 1126.56L771.283 955.767C768.832 941.517 767.134 927.147 766.2 912.721C766.072 910.552 765.089 908.522 763.469 907.079C761.846 905.632 759.718 904.89 757.549 905.013H756.77L671.743 918.378C669.796 918.686 668.021 919.682 666.75 921.186C665.479 922.691 664.79 924.606 664.815 926.577C664.569 936.946 663.626 947.289 661.986 957.53C661.412 962.245 661.412 962.245 660.223 971.305L642.717 1102.49L585.322 983.194C574.007 959.867 570.03 951.094 567.242 942.197C566.664 940.311 565.426 938.696 563.753 937.651C562.081 936.605 560.088 936.195 558.141 936.499L472.909 949.659C470.76 950.003 468.838 951.184 467.563 952.942C466.284 954.705 465.759 956.899 466.103 959.047V959.744C469.588 973.806 472.376 988.032 474.59 1002.34L501.524 1173.09C502.549 1179.04 503.451 1184.94 504.148 1190.92C505.267 1199.29 506.087 1207.69 506.608 1216.14C506.665 1217.22 506.936 1218.27 507.399 1219.25C507.867 1220.22 508.523 1221.09 509.326 1221.81C510.13 1222.53 511.064 1223.08 512.085 1223.44C513.102 1223.8 514.18 1223.95 515.258 1223.89H516.037L529.648 1221.75L572.572 1214.99C574.72 1214.65 576.643 1213.46 577.918 1211.71C579.193 1209.94 579.718 1207.75 579.377 1205.6C579.398 1205.33 579.398 1205.06 579.377 1204.78C575.848 1190.73 573.113 1176.5 571.178 1162.14L560.847 1096.35C559.781 1089.62 557.854 1079.37 549.532 1041.2C562.077 1070.85 568.8 1086.3 569.333 1087.41L603.114 1158.82C608.116 1169.57 608.649 1170.8 613.036 1179.98C616.672 1186.56 619.796 1193.41 622.383 1200.48C623.047 1202.24 624.298 1203.72 625.925 1204.67C627.553 1205.61 629.459 1205.97 631.32 1205.68L684.616 1197.24C686.522 1196.94 688.261 1195.98 689.527 1194.52C690.794 1193.07 691.508 1191.22 691.544 1189.28C691.881 1179.86 692.852 1170.46 694.455 1161.16L696.997 1143.98L707.656 1068.63C708.312 1064.24 709.05 1054.28 710.28 1039.28C710.28 1033.99 711.223 1026.28 712.207 1015.95C716.102 1051.17 717.536 1064.45 718.766 1072.16L728.77 1137.75C731.356 1151.95 733.07 1166.3 733.894 1180.72C734.001 1182.89 734.96 1184.92 736.567 1186.38C738.174 1187.84 740.294 1188.6 742.462 1188.51H743.364L799.817 1179.4C801.965 1179.06 803.888 1177.88 805.163 1176.12C806.438 1174.36 806.963 1172.16 806.622 1170.02C806.643 1169.7 806.643 1169.39 806.622 1169.07L806.376 1168.99Z" fill="#39C9A7"/>
<defs>
<filter id="filter0_d_2_216" x="662" y="-1.52588e-05" width="1802.88" height="1598.84" filterUnits="userSpaceOnUse" color-interpolation-filters="sRGB">
<feFlood flood-opacity="0" result="BackgroundImageFix"/>
<feColorMatrix in="SourceAlpha" type="matrix" values="0 0 0 0 0 0 0 0 0 0 0 0 0 0 0 0 0 0 127 0" result="hardAlpha"/>
<feOffset dy="4"/>
<feGaussianBlur stdDeviation="32"/>
<feComposite in2="hardAlpha" operator="out"/>
<feColorMatrix type="matrix" values="0 0 0 0 0 0 0 0 0 0 0 0 0 0 0 0 0 0 0.15 0"/>
<feBlend mode="normal" in2="BackgroundImageFix" result="effect1_dropShadow_2_216"/>
<feBlend mode="normal" in="SourceGraphic" in2="effect1_dropShadow_2_216" result="shape"/>
</filter>
<filter id="filter1_d_2_216" x="0" y="793" width="3042.57" height="1377.79" filterUnits="userSpaceOnUse" color-interpolation-filters="sRGB">
<feFlood flood-opacity="0" result="BackgroundImageFix"/>
<feColorMatrix in="SourceAlpha" type="matrix" values="0 0 0 0 0 0 0 0 0 0 0 0 0 0 0 0 0 0 127 0" result="hardAlpha"/>
<feOffset dy="4"/>
<feGaussianBlur stdDeviation="32"/>
<feComposite in2="hardAlpha" operator="out"/>
<feColorMatrix type="matrix" values="0 0 0 0 0 0 0 0 0 0 0 0 0 0 0 0 0 0 0.15 0"/>
<feBlend mode="normal" in2="BackgroundImageFix" result="effect1_dropShadow_2_216"/>
<feBlend mode="normal" in="SourceGraphic" in2="effect1_dropShadow_2_216" result="shape"/>
</filter>
</defs>
</svg>
